<svg viewBox="0 0 1320 1820" xmlns="http://www.w3.org/2000/svg" font-family="ui-sans-serif, system-ui, sans-serif">
  <title>MedLynq database schema</title>
  <style>
    .t{fill:#1f1f1f;} .t2{fill:#555;} .t3{fill:#888;}
    .table{fill:#fff;stroke:#999;stroke-width:1.2;}
    .hdrTenant{fill:#2d3748;} .hdrClinical{fill:#1f8a4c;} .hdrDocs{fill:#c96442;} .hdrFlow{fill:#2566c8;} .hdrQuery{fill:#7a3aa6;} .hdrIntel{fill:#c98a1f;} .hdrMeta{fill:#666;}
    .inv{fill:#fff;}
    .title{font-size:18px;font-weight:700;}
    .lbl{font-size:12px;font-weight:700;letter-spacing:0.4px;text-transform:uppercase;fill:#555;}
    .tname{font-size:12px;font-weight:700;fill:#fff;}
    .tlist{font-size:10px;}
    .pk{font-weight:700;fill:#1f1f1f;}
    .fk{fill:#c96442;}
    .col{fill:#444;}
    .note{font-size:11px;}
  </style>
  <rect width="1320" height="1820" fill="#fff"/>
  <text x="40" y="40" class="title t">MedLynq — Database schema (core tables)</text>
  <text x="40" y="60" class="note t2">Multi-tenant by hospital_id. PK = primary key (bold). FK = foreign key (orange, with dashed arrows). Columns are not exhaustive — only what matters.</text>
  <g transform="translate(900,28)">
    <rect width="380" height="40" rx="6" fill="#fff" stroke="#d4d4d4"/>
    <rect x="10" y="10" width="20" height="14" rx="3" class="hdrTenant"/><text x="36" y="22" class="tlist t2">Tenant</text>
    <rect x="80" y="10" width="20" height="14" rx="3" class="hdrClinical"/><text x="106" y="22" class="tlist t2">Clinical</text>
    <rect x="150" y="10" width="20" height="14" rx="3" class="hdrDocs"/><text x="176" y="22" class="tlist t2">Docs</text>
    <rect x="210" y="10" width="20" height="14" rx="3" class="hdrFlow"/><text x="236" y="22" class="tlist t2">Workflow</text>
    <rect x="285" y="10" width="20" height="14" rx="3" class="hdrQuery"/><text x="311" y="22" class="tlist t2">Query</text>
    <rect x="340" y="10" width="20" height="14" rx="3" class="hdrIntel"/><text x="366" y="22" class="tlist t2">Intel</text>
  </g>
  <text x="40" y="100" class="lbl">Tenant &amp; users</text>
  <g transform="translate(40,114)"><rect class="table" width="260" height="170" rx="6"/><rect class="hdrTenant" width="260" height="28" rx="6"/><text x="14" y="20" class="tname">hospitals</text><g transform="translate(14,46)"><text y="0" class="tlist pk">id (PK)</text><text y="14" class="tlist col">name, address, city, state</text><text y="28" class="tlist col">nha_facility_id, gst, pan</text><text y="42" class="tlist col">tier (NABH / non-NABH)</text><text y="56" class="tlist col">created_at, plan_tier</text><text y="78" class="tlist t2 note">One row per hospital tenant.</text><text y="92" class="tlist t2 note">Every other table joins to this.</text></g></g>
  <g transform="translate(316,114)"><rect class="table" width="260" height="170" rx="6"/><rect class="hdrTenant" width="260" height="28" rx="6"/><text x="14" y="20" class="tname">users</text><g transform="translate(14,46)"><text y="0" class="tlist pk">id (PK)</text><text y="14" class="tlist fk">hospital_id (FK)</text><text y="28" class="tlist col">name, email, phone</text><text y="42" class="tlist col">role (doctor/nurse/tpa/cfo/</text><text y="56" class="tlist col">admin/insurer/auditor)</text><text y="70" class="tlist col">password_hash, mfa_secret</text><text y="84" class="tlist col">last_login, is_active</text><text y="106" class="tlist t2 note">All staff and external users.</text></g></g>
  <g transform="translate(592,114)"><rect class="table" width="260" height="170" rx="6"/><rect class="hdrTenant" width="260" height="28" rx="6"/><text x="14" y="20" class="tname">sessions</text><g transform="translate(14,46)"><text y="0" class="tlist pk">id (PK)</text><text y="14" class="tlist fk">user_id (FK)</text><text y="28" class="tlist col">device, ip, user_agent</text><text y="42" class="tlist col">started_at, last_seen_at</text><text y="56" class="tlist col">revoked_at</text><text y="78" class="tlist t2 note">Active logins. Used for</text><text y="92" class="tlist t2 note">audit + mobile session inbox.</text></g></g>
  <g transform="translate(868,114)"><rect class="table" width="260" height="170" rx="6"/><rect class="hdrTenant" width="260" height="28" rx="6"/><text x="14" y="20" class="tname">subscriptions</text><g transform="translate(14,46)"><text y="0" class="tlist pk">id (PK)</text><text y="14" class="tlist fk">hospital_id (FK)</text><text y="28" class="tlist col">tier (free/pro/enterprise)</text><text y="42" class="tlist col">addons (network, mirror)</text><text y="56" class="tlist col">per_claim_rate</text><text y="70" class="tlist col">billing_cycle, next_invoice_at</text><text y="92" class="tlist t2 note">SaaS plan + per-claim pricing.</text></g></g>
  <text x="40" y="304" class="lbl">Clinical (patient + consent)</text>
  <g transform="translate(40,318)"><rect class="table" width="260" height="200" rx="6"/><rect class="hdrClinical" width="260" height="28" rx="6"/><text x="14" y="20" class="tname">patients</text><g transform="translate(14,46)"><text y="0" class="tlist pk">id (PK)</text><text y="14" class="tlist fk">hospital_id (FK)</text><text y="28" class="tlist col">mrn (unique per hospital)</text><text y="42" class="tlist col">name, dob, gender</text><text y="56" class="tlist col">state, district, address</text><text y="70" class="tlist col">abha_id, aadhaar_hash</text><text y="84" class="tlist col">phone_e164</text><text y="106" class="tlist t2 note">PII separated by encryption.</text><text y="120" class="tlist t2 note">Aadhaar stored as hash only.</text></g></g>
  <g transform="translate(316,318)"><rect class="table" width="260" height="200" rx="6"/><rect class="hdrClinical" width="260" height="28" rx="6"/><text x="14" y="20" class="tname">patient_folders</text><g transform="translate(14,46)"><text y="0" class="tlist pk">id (PK)</text><text y="14" class="tlist fk">hospital_id, patient_id (FK)</text><text y="28" class="tlist col">folder_key (PatientName_MRN)</text><text y="42" class="tlist col">scheme, payer, hospital_bill_no</text><text y="56" class="tlist col">admission_date, discharge_date</text><text y="70" class="tlist col">primary_doctor_id</text><text y="84" class="tlist col">status (open/closed)</text><text y="106" class="tlist t2 note">The PatientName_MRN container.</text><text y="120" class="tlist t2 note">Same folder serves pre-auth + claim.</text></g></g>
  <g transform="translate(592,318)"><rect class="table" width="260" height="200" rx="6"/><rect class="hdrClinical" width="260" height="28" rx="6"/><text x="14" y="20" class="tname">consent_ledger</text><g transform="translate(14,46)"><text y="0" class="tlist pk">id (PK)</text><text y="14" class="tlist fk">patient_id, folder_id (FK)</text><text y="28" class="tlist col">consent_type (data/share/image)</text><text y="42" class="tlist col">signed_at, method (otp/aadhaar)</text><text y="56" class="tlist col">hash, witness_user_id</text><text y="70" class="tlist col">revoked_at</text><text y="92" class="tlist t2 note">DPDP-grade e-consent record.</text><text y="106" class="tlist t2 note">Required before any sharing.</text></g></g>
  <g transform="translate(868,318)"><rect class="table" width="260" height="200" rx="6"/><rect class="hdrClinical" width="260" height="28" rx="6"/><text x="14" y="20" class="tname">clinical_vitals</text><g transform="translate(14,46)"><text y="0" class="tlist pk">id (PK)</text><text y="14" class="tlist fk">folder_id (FK)</text><text y="28" class="tlist col">temp, pulse, bp, spo2</text><text y="42" class="tlist col">height, weight, bmi</text><text y="56" class="tlist col">recorded_at, recorded_by</text><text y="70" class="tlist col">source (mobile/his/manual)</text><text y="92" class="tlist t2 note">Required by most schemes.</text></g></g>
  <text x="40" y="538" class="lbl">Documents &amp; intelligence index</text>
  <g transform="translate(40,552)"><rect class="table" width="260" height="240" rx="6"/><rect class="hdrDocs" width="260" height="28" rx="6"/><text x="14" y="20" class="tname">documents</text><g transform="translate(14,46)"><text y="0" class="tlist pk">id (PK)</text><text y="14" class="tlist fk">folder_id (FK)</text><text y="28" class="tlist col">doc_type (hpe, ot_note, post_op,</text><text y="42" class="tlist col">discharge, bill, referral, consent…)</text><text y="56" class="tlist col">source (medcam_go, his, pharmacy,</text><text y="70" class="tlist col">pacs, manual_upload, voice)</text><text y="84" class="tlist col">original_filename, ai_filename</text><text y="98" class="tlist col">s3_path_original, s3_path_compressed</text><text y="112" class="tlist col">size_bytes_orig, size_bytes_compressed</text><text y="126" class="tlist col">captured_by_user_id, captured_at</text><text y="140" class="tlist col">geotag, device_id</text><text y="154" class="tlist col">status (queued/processed/failed)</text><text y="170" class="tlist col">confidence, requires_review</text></g></g>
  <g transform="translate(316,552)"><rect class="table" width="260" height="240" rx="6"/><rect class="hdrDocs" width="260" height="28" rx="6"/><text x="14" y="20" class="tname">evidence_index</text><g transform="translate(14,46)"><text y="0" class="tlist pk">id (PK)</text><text y="14" class="tlist fk">document_id, folder_id (FK)</text><text y="28" class="tlist col">page_number</text><text y="42" class="tlist col">extracted_text</text><text y="56" class="tlist col">extracted_fields (jsonb)</text><text y="70" class="tlist col">embedding (vector)</text><text y="84" class="tlist col">keywords, tags</text><text y="98" class="tlist col">indexed_at</text><text y="124" class="tlist t2 note">Per-page OCR + embedding.</text><text y="138" class="tlist t2 note">Powers Evidence Locator</text><text y="152" class="tlist t2 note">and "Ask Lynq" NL search.</text><text y="172" class="tlist t2 note">FTS + pgvector indexes.</text></g></g>
  <g transform="translate(592,552)"><rect class="table" width="260" height="240" rx="6"/><rect class="hdrDocs" width="260" height="28" rx="6"/><text x="14" y="20" class="tname">case_sheets</text><g transform="translate(14,46)"><text y="0" class="tlist pk">id (PK)</text><text y="14" class="tlist fk">folder_id, doctor_id (FK)</text><text y="28" class="tlist col">source (handwriting/voice/typed)</text><text y="42" class="tlist col">raw_document_id (FK to documents)</text><text y="56" class="tlist col">dx_codes (jsonb)</text><text y="70" class="tlist col">icd_codes, procedure_codes</text><text y="84" class="tlist col">treatment_plan (text)</text><text y="98" class="tlist col">medications (jsonb)</text><text y="112" class="tlist col">ai_reasoning (text)</text><text y="126" class="tlist col">confidence_per_field (jsonb)</text><text y="140" class="tlist col">signed_by_user_id, signed_at</text><text y="166" class="tlist t2 note">Lynq's elaborated case sheet</text><text y="180" class="tlist t2 note">from handwriting or voice.</text></g></g>
  <g transform="translate(868,552)"><rect class="table" width="260" height="240" rx="6"/><rect class="hdrDocs" width="260" height="28" rx="6"/><text x="14" y="20" class="tname">document_checklist</text><g transform="translate(14,46)"><text y="0" class="tlist pk">id (PK)</text><text y="14" class="tlist fk">folder_id, procedure_code (FK)</text><text y="28" class="tlist col">required_doc_type</text><text y="42" class="tlist col">scheme, payer</text><text y="56" class="tlist col">status (missing/present/low_conf)</text><text y="70" class="tlist col">matched_document_id (FK)</text><text y="84" class="tlist col">last_checked_at</text><text y="110" class="tlist t2 note">Procedure × scheme matrix.</text><text y="124" class="tlist t2 note">Drives missing-doc detection</text><text y="138" class="tlist t2 note">and ward request workflow.</text></g></g>
  <text x="40" y="812" class="lbl">Workflow — pre-auth, claims, payments</text>
  <g transform="translate(40,826)"><rect class="table" width="260" height="220" rx="6"/><rect class="hdrFlow" width="260" height="28" rx="6"/><text x="14" y="20" class="tname">preauth_requests</text><g transform="translate(14,46)"><text y="0" class="tlist pk">id (PK)</text><text y="14" class="tlist fk">folder_id (FK)</text><text y="28" class="tlist col">scheme, payer</text><text y="42" class="tlist col">procedure_codes, icd_codes</text><text y="56" class="tlist col">cost_estimate, requested_amount</text><text y="70" class="tlist col">approved_amount, enhancement_id</text><text y="84" class="tlist col">submitted_at, decision_at</text><text y="98" class="tlist col">status (requested/approved/</text><text y="112" class="tlist col">enhanced/rejected)</text><text y="126" class="tlist col">rejection_reason</text><text y="148" class="tlist t2 note">Cashless pre-approval flow.</text><text y="162" class="tlist t2 note">Evidence reused into claim.</text></g></g>
  <g transform="translate(316,826)"><rect class="table" width="260" height="220" rx="6"/><rect class="hdrFlow" width="260" height="28" rx="6"/><text x="14" y="20" class="tname">claims</text><g transform="translate(14,46)"><text y="0" class="tlist pk">id (PK)</text><text y="14" class="tlist fk">folder_id, preauth_id (FK)</text><text y="28" class="tlist col">registration_id, reference_no</text><text y="42" class="tlist col">scheme, payer</text><text y="56" class="tlist col">icd_code, procedure_codes (jsonb)</text><text y="70" class="tlist col">base_amount, net_amount</text><text y="84" class="tlist col">claimed_amount, approved_amount</text><text y="98" class="tlist col">adj_factor, final_status</text><text y="112" class="tlist col">submitted_at, settled_at</text><text y="126" class="tlist col">tat_days (computed)</text><text y="148" class="tlist t2 note">One row per claim cycle.</text><text y="162" class="tlist t2 note">61 fields in extended view.</text></g></g>
  <g transform="translate(592,826)"><rect class="table" width="260" height="220" rx="6"/><rect class="hdrFlow" width="260" height="28" rx="6"/><text x="14" y="20" class="tname">claim_status_history</text><g transform="translate(14,46)"><text y="0" class="tlist pk">id (PK)</text><text y="14" class="tlist fk">claim_id (FK)</text><text y="28" class="tlist col">status (submitted/pending/query/</text><text y="42" class="tlist col">responded/approved/rejected/paid)</text><text y="56" class="tlist col">amount_at_stage</text><text y="70" class="tlist col">changed_at, changed_by</text><text y="84" class="tlist col">source (portal/nhcx/manual)</text><text y="106" class="tlist t2 note">Every status transition for</text><text y="120" class="tlist t2 note">the claim's lifecycle. Powers</text><text y="134" class="tlist t2 note">timeline + aging buckets.</text></g></g>
  <g transform="translate(868,826)"><rect class="table" width="260" height="220" rx="6"/><rect class="hdrFlow" width="260" height="28" rx="6"/><text x="14" y="20" class="tname">payments</text><g transform="translate(14,46)"><text y="0" class="tlist pk">id (PK)</text><text y="14" class="tlist fk">claim_id (FK)</text><text y="28" class="tlist col">utr, amount, paid_date</text><text y="42" class="tlist col">bank, account_last4</text><text y="56" class="tlist col">tds_amount, net_received</text><text y="70" class="tlist col">erp_posted_at, tally_voucher_id</text><text y="84" class="tlist col">reconciled_at</text><text y="106" class="tlist t2 note">UTR reconciliation +</text><text y="120" class="tlist t2 note">ERP/Tally push.</text></g></g>
  <text x="40" y="1066" class="lbl">Query loop — classify, locate, draft, packet</text>
  <g transform="translate(40,1080)"><rect class="table" width="260" height="220" rx="6"/><rect class="hdrQuery" width="260" height="28" rx="6"/><text x="14" y="20" class="tname">queries</text><g transform="translate(14,46)"><text y="0" class="tlist pk">id (PK)</text><text y="14" class="tlist fk">claim_id (FK)</text><text y="28" class="tlist col">raw_query_text</text><text y="42" class="tlist col">raised_by, raised_at</text><text y="56" class="tlist col">query_amount_at_stage</text><text y="70" class="tlist col">aging_days (computed)</text><text y="84" class="tlist col">status (open/responded/resolved)</text><text y="98" class="tlist col">source (portal/nhcx)</text><text y="120" class="tlist t2 note">Every incoming query stored</text><text y="134" class="tlist t2 note">verbatim. Acts as label set</text><text y="148" class="tlist t2 note">for classifier training.</text></g></g>
  <g transform="translate(316,1080)"><rect class="table" width="260" height="220" rx="6"/><rect class="hdrQuery" width="260" height="28" rx="6"/><text x="14" y="20" class="tname">query_classifications</text><g transform="translate(14,46)"><text y="0" class="tlist pk">id (PK)</text><text y="14" class="tlist fk">query_id (FK)</text><text y="28" class="tlist col">predicted_type</text><text y="42" class="tlist col">(missing_doc/code_mismatch/</text><text y="56" class="tlist col">clinical_elab/clubbing/geotag/</text><text y="70" class="tlist col">eligibility/pricing/duplicate/</text><text y="84" class="tlist col">date_inconsist/quality)</text><text y="98" class="tlist col">confidence, model_version</text><text y="112" class="tlist col">human_override (nullable)</text><text y="134" class="tlist t2 note">Lynq classifier output +</text><text y="148" class="tlist t2 note">human correction (gold labels).</text></g></g>
  <g transform="translate(592,1080)"><rect class="table" width="260" height="220" rx="6"/><rect class="hdrQuery" width="260" height="28" rx="6"/><text x="14" y="20" class="tname">query_responses</text><g transform="translate(14,46)"><text y="0" class="tlist pk">id (PK)</text><text y="14" class="tlist fk">query_id (FK)</text><text y="28" class="tlist col">draft_text, final_text</text><text y="42" class="tlist col">drafted_by (ai/user_id)</text><text y="56" class="tlist col">signed_by_user_id, signed_at</text><text y="70" class="tlist col">sent_at, channel (portal/nhcx)</text><text y="84" class="tlist col">attachments (jsonb array of</text><text y="98" class="tlist col">document_id + page refs)</text><text y="120" class="tlist t2 note">Drafter output + final sent text.</text><text y="134" class="tlist t2 note">Stores doctor signature.</text></g></g>
  <g transform="translate(868,1080)"><rect class="table" width="260" height="220" rx="6"/><rect class="hdrQuery" width="260" height="28" rx="6"/><text x="14" y="20" class="tname">packet_builds</text><g transform="translate(14,46)"><text y="0" class="tlist pk">id (PK)</text><text y="14" class="tlist fk">query_id, response_id (FK)</text><text y="28" class="tlist col">cover_page_pdf_path</text><text y="42" class="tlist col">merged_pdf_path</text><text y="56" class="tlist col">attachments (jsonb)</text><text y="70" class="tlist col">filename (Query_Response_XXXX)</text><text y="84" class="tlist col">total_pages, built_at</text><text y="98" class="tlist col">submitted_at, status</text><text y="120" class="tlist t2 note">Final upload-ready PDF.</text><text y="134" class="tlist t2 note">One per query response.</text></g></g>
  <text x="40" y="1320" class="lbl">Intelligence &amp; reference data</text>
  <g transform="translate(40,1334)"><rect class="table" width="260" height="200" rx="6"/><rect class="hdrIntel" width="260" height="28" rx="6"/><text x="14" y="20" class="tname">scheme_codes</text><g transform="translate(14,46)"><text y="0" class="tlist pk">id (PK)</text><text y="14" class="tlist col">scheme (PMJAY/CGHS/ESI/SHA…)</text><text y="28" class="tlist col">code, code_type (ICD/HBP/scheme)</text><text y="42" class="tlist col">description, speciality</text><text y="56" class="tlist col">base_rate, adj_factor</text><text y="70" class="tlist col">required_docs (jsonb)</text><text y="84" class="tlist col">effective_from, retired_at</text><text y="106" class="tlist t2 note">Master code table.</text><text y="120" class="tlist t2 note">Powers FHIR mapper +</text><text y="134" class="tlist t2 note">doc checker matrix.</text></g></g>
  <g transform="translate(316,1334)"><rect class="table" width="260" height="200" rx="6"/><rect class="hdrIntel" width="260" height="28" rx="6"/><text x="14" y="20" class="tname">empanelment_records</text><g transform="translate(14,46)"><text y="0" class="tlist pk">id (PK)</text><text y="14" class="tlist fk">hospital_id (FK)</text><text y="28" class="tlist col">scheme, empanelment_id</text><text y="42" class="tlist col">specialities (jsonb)</text><text y="56" class="tlist col">empanelled_from, expires_at</text><text y="70" class="tlist col">nabh_status, nabh_expires_at</text><text y="84" class="tlist col">status (active/expired/suspended)</text><text y="106" class="tlist t2 note">Per scheme + per hospital.</text><text y="120" class="tlist t2 note">Blocks claims if lapsed.</text><text y="134" class="tlist t2 note">Sends renewal alerts.</text></g></g>
  <g transform="translate(592,1334)"><rect class="table" width="260" height="200" rx="6"/><rect class="hdrIntel" width="260" height="28" rx="6"/><text x="14" y="20" class="tname">ai_predictions</text><g transform="translate(14,46)"><text y="0" class="tlist pk">id (PK)</text><text y="14" class="tlist fk">target_type (claim/preauth/query)</text><text y="28" class="tlist fk">target_id (FK)</text><text y="42" class="tlist col">model_name, model_version</text><text y="56" class="tlist col">prediction (jsonb)</text><text y="70" class="tlist col">confidence</text><text y="84" class="tlist col">predicted_at</text><text y="98" class="tlist col">actual_outcome (when known)</text><text y="120" class="tlist t2 note">All Lynq outputs land here.</text><text y="134" class="tlist t2 note">Predicted vs actual = labels</text><text y="148" class="tlist t2 note">for retraining.</text></g></g>
  <g transform="translate(868,1334)"><rect class="table" width="260" height="200" rx="6"/><rect class="hdrIntel" width="260" height="28" rx="6"/><text x="14" y="20" class="tname">network_patterns</text><g transform="translate(14,46)"><text y="0" class="tlist pk">id (PK)</text><text y="14" class="tlist col">scheme, procedure_code</text><text y="28" class="tlist col">pattern_type (denial/adj_factor/</text><text y="42" class="tlist col">query_spike/approval_drop)</text><text y="56" class="tlist col">window_start, window_end</text><text y="70" class="tlist col">stat_value, hospital_count</text><text y="84" class="tlist col">recommended_action</text><text y="106" class="tlist t2 note">Cross-hospital patterns.</text><text y="120" class="tlist t2 note">Anonymised. Drives alerts.</text></g></g>
  <text x="40" y="1554" class="lbl">Audit, notifications, integrations</text>
  <g transform="translate(40,1568)"><rect class="table" width="260" height="180" rx="6"/><rect class="hdrMeta" width="260" height="28" rx="6"/><text x="14" y="20" class="tname">audit_events</text><g transform="translate(14,46)"><text y="0" class="tlist pk">id (PK)</text><text y="14" class="tlist fk">hospital_id, folder_id (FK)</text><text y="28" class="tlist col">actor_user_id, actor_system</text><text y="42" class="tlist col">event_type, target_table, target_id</text><text y="56" class="tlist col">action (create/read/update/delete)</text><text y="70" class="tlist col">payload (jsonb), occurred_at</text><text y="84" class="tlist col">fhir_audit_event_ref</text><text y="106" class="tlist t2 note">FHIR AuditEvent log.</text><text y="120" class="tlist t2 note">Powers timeline + compliance.</text></g></g>
  <g transform="translate(316,1568)"><rect class="table" width="260" height="180" rx="6"/><rect class="hdrMeta" width="260" height="28" rx="6"/><text x="14" y="20" class="tname">notifications</text><g transform="translate(14,46)"><text y="0" class="tlist pk">id (PK)</text><text y="14" class="tlist fk">user_id, hospital_id (FK)</text><text y="28" class="tlist col">type (aging/missing_doc/query/</text><text y="42" class="tlist col">cfo_digest/empanelment/network)</text><text y="56" class="tlist col">channel (push/email/sms)</text><text y="70" class="tlist col">payload, sent_at, opened_at</text><text y="92" class="tlist t2 note">All outbound alerts.</text><text y="106" class="tlist t2 note">CFO daily digest sits here.</text></g></g>
  <g transform="translate(592,1568)"><rect class="table" width="260" height="180" rx="6"/><rect class="hdrMeta" width="260" height="28" rx="6"/><text x="14" y="20" class="tname">integration_jobs</text><g transform="translate(14,46)"><text y="0" class="tlist pk">id (PK)</text><text y="14" class="tlist fk">hospital_id, connector (FK)</text><text y="28" class="tlist col">type (his_pull/pharmacy_pull/</text><text y="42" class="tlist col">portal_scrape/nhcx_submit/erp_post)</text><text y="56" class="tlist col">payload, status, error</text><text y="70" class="tlist col">queued_at, started_at, finished_at</text><text y="92" class="tlist t2 note">Every external call logged.</text><text y="106" class="tlist t2 note">Retried + observability.</text></g></g>
  <g transform="translate(868,1568)"><rect class="table" width="260" height="180" rx="6"/><rect class="hdrMeta" width="260" height="28" rx="6"/><text x="14" y="20" class="tname">share_links</text><g transform="translate(14,46)"><text y="0" class="tlist pk">id (PK)</text><text y="14" class="tlist fk">folder_id, created_by_user_id (FK)</text><text y="28" class="tlist col">scope (auditor/insurer/patient)</text><text y="42" class="tlist col">token (signed), expires_at</text><text y="56" class="tlist col">watermark_text, allow_download</text><text y="70" class="tlist col">accessed_count, last_accessed_at</text><text y="92" class="tlist t2 note">Time-boxed read-only access.</text><text y="106" class="tlist t2 note">Auditor + patient + insurer.</text></g></g>
  <text x="40" y="1768" class="lbl">Key relationships (read me)</text>
  <g transform="translate(40,1782)"><rect width="1240" height="36" rx="6" fill="#fff" stroke="#d4d4d4"/><text x="14" y="22" class="tlist t2">hospitals → users · patients · folders · subscriptions · empanelment · audit_events &nbsp; · &nbsp; folders → documents · case_sheets · vitals · checklist · preauth · claims · share_links</text></g>
</svg>
