<svg viewBox="0 0 1320 2280" xmlns="http://www.w3.org/2000/svg" font-family="ui-sans-serif, system-ui, sans-serif">
  <title>MedLynq wireframes</title>
  <style>
    .t{fill:#1f1f1f;} .t2{fill:#555;} .t3{fill:#888;} .inv{fill:#fff;}
    .phone{fill:#fff;stroke:#1f1f1f;stroke-width:2;}
    .web{fill:#fff;stroke:#1f1f1f;stroke-width:1.6;}
    .topnav{fill:#1f1f1f;}
    .side{fill:#f6f6f4;}
    .panel{fill:#fff;stroke:#ccc;stroke-width:1;}
    .accent{fill:#c96442;}
    .accentSoft{fill:#fbeee8;stroke:#c96442;stroke-width:1;}
    .green{fill:#1f8a4c;} .greenSoft{fill:#e8f5ee;stroke:#1f8a4c;stroke-width:1;}
    .red{fill:#c43d3d;} .redSoft{fill:#fbeaea;stroke:#c43d3d;stroke-width:1;}
    .amber{fill:#c98a1f;} .amberSoft{fill:#fbf2dc;stroke:#c98a1f;stroke-width:1;}
    .placeholder{fill:#ececea;}
    .title{font-size:18px;font-weight:700;}
    .lbl{font-size:12px;font-weight:700;letter-spacing:0.5px;text-transform:uppercase;fill:#555;}
    .h{font-size:12px;font-weight:600;}
    .sub{font-size:10px;}
    .tag{font-size:9px;}
    .micro{font-size:8px;}
    .anno{font-size:11px;font-weight:600;}
    .annoSub{font-size:10px;fill:#555;}
  </style>
  <rect width="1320" height="2280" fill="#fff"/>
  <text x="40" y="40" class="title t">MedLynq — screen wireframes</text>
  <text x="40" y="58" class="sub t2">Minimal wireframes — boxes show layout, not styling. Six MedLynq Go (mobile) + six MedLynq Pulse (web) + three external surfaces.</text>
  <text x="40" y="100" class="lbl">A · MedLynq Go (Android · 6 key screens)</text>
  <g transform="translate(40,120)"><rect class="phone" width="190" height="380" rx="20"/><rect class="topnav" x="10" y="10" width="170" height="22" rx="4"/><text x="18" y="25" class="tag inv">Go · Doctor</text><rect class="accent" x="148" y="12" width="28" height="18" rx="9"/><text x="162" y="24" class="micro inv" text-anchor="middle">DOC</text><rect class="placeholder" x="10" y="40" width="170" height="260" rx="6"/><text x="95" y="170" class="sub t2" text-anchor="middle">live camera preview</text><circle cx="40" cy="280" r="14" class="panel" stroke="#1f1f1f"/><text x="40" y="284" class="micro t" text-anchor="middle">FLASH</text><circle cx="150" cy="280" r="14" class="panel" stroke="#1f1f1f"/><text x="150" y="284" class="micro t" text-anchor="middle">FLIP</text><circle cx="95" cy="340" r="22" class="accent"/><text x="95" y="343" class="micro inv" text-anchor="middle">SHUTTER</text><rect class="panel" x="14" y="320" width="34" height="34" rx="4" stroke="#1f1f1f"/><text x="31" y="340" class="micro t" text-anchor="middle">QR</text><rect class="panel" x="142" y="320" width="34" height="34" rx="4" stroke="#1f1f1f"/><text x="159" y="340" class="micro t" text-anchor="middle">VOICE</text><text x="95" y="372" class="micro t2" text-anchor="middle">Not saved to gallery</text></g>
  <text x="135" y="520" class="anno" text-anchor="middle">1 · Camera Home</text>
  <text x="135" y="534" class="annoSub" text-anchor="middle">QR · voice · shutter · role badge</text>
  <g transform="translate(250,120)"><rect class="phone" width="190" height="380" rx="20"/><rect class="topnav" x="10" y="10" width="170" height="22" rx="4"/><text x="18" y="25" class="tag inv">Scan patient + consent</text><rect class="placeholder" x="20" y="48" width="150" height="150" rx="4"/><rect class="panel" x="55" y="83" width="80" height="80" rx="4" stroke="#1f1f1f"/><text x="95" y="128" class="micro t2" text-anchor="middle">QR target</text><rect class="accentSoft" x="14" y="208" width="162" height="56" rx="6"/><text x="22" y="224" class="tag h t">SHARMA, RAHUL</text><text x="22" y="238" class="micro t2">MRN: MC-9902-18A · DOB 1985</text><text x="22" y="252" class="micro t2">HIS match: 98% confidence</text><rect class="panel" x="14" y="276" width="162" height="40" rx="6" stroke="#999"/><text x="22" y="290" class="tag h t">Patient consent (DPDP)</text><text x="22" y="302" class="micro t2">OTP verify · 1 tap</text><rect class="accent" x="14" y="328" width="162" height="32" rx="6"/><text x="95" y="348" class="tag inv h" text-anchor="middle">Attach to scanned patient</text></g>
  <text x="345" y="520" class="anno" text-anchor="middle">2 · QR scan + consent</text>
  <text x="345" y="534" class="annoSub" text-anchor="middle">Binds MRN · signs consent ledger</text>
  <g transform="translate(460,120)"><rect class="phone" width="190" height="380" rx="20"/><rect class="topnav" x="10" y="10" width="170" height="22" rx="4"/><text x="18" y="25" class="tag inv">Verify capture</text><rect class="placeholder" x="20" y="48" width="150" height="100" rx="4"/><text x="95" y="100" class="micro t2" text-anchor="middle">captured photo</text><rect class="green" x="22" y="124" width="44" height="14" rx="7"/><text x="44" y="135" class="micro inv" text-anchor="middle">POST-OP</text><text x="22" y="166" class="sub t">Lynq confidence: 98%</text><rect class="panel" x="14" y="180" width="162" height="32" rx="4" stroke="#ccc"/><text x="22" y="200" class="tag t">Document type: Post-op photo ▾</text><rect class="panel" x="14" y="220" width="162" height="60" rx="4" stroke="#ccc"/><text x="22" y="236" class="micro t2">add description (optional)…</text><rect class="panel" x="14" y="292" width="76" height="32" rx="6" stroke="#1f1f1f"/><text x="52" y="312" class="tag t" text-anchor="middle">Retake</text><rect class="accent" x="100" y="292" width="76" height="32" rx="6"/><text x="138" y="312" class="tag inv h" text-anchor="middle">Attach &amp; upload</text><text x="95" y="350" class="micro t2" text-anchor="middle">Image not saved to device</text><text x="95" y="362" class="micro t2" text-anchor="middle">→ ADITI_SHARMA_MRN9821 folder</text></g>
  <text x="555" y="520" class="anno" text-anchor="middle">3 · Capture confirmation</text>
  <text x="555" y="534" class="annoSub" text-anchor="middle">AI tags · doc type · review</text>
  <g transform="translate(670,120)"><rect class="phone" width="190" height="380" rx="20"/><rect class="topnav" x="10" y="10" width="170" height="22" rx="4"/><text x="18" y="25" class="tag inv">Voice note</text><rect class="accentSoft" x="14" y="50" width="162" height="60" rx="6"/><text x="22" y="68" class="tag h t">Patient: ADITI_SHARMA</text><text x="22" y="82" class="micro t2">Bound at 14:22</text><text x="22" y="98" class="micro t2">Recording in: ENGLISH · HINDI</text><circle cx="95" cy="178" r="34" class="accent"/><text x="95" y="184" class="tag inv h" text-anchor="middle">REC</text><text x="95" y="224" class="sub t" text-anchor="middle">00:42</text><rect class="panel" x="14" y="240" width="162" height="60" rx="6" stroke="#ccc"/><text x="22" y="256" class="micro t2">Lynq live transcript:</text><text x="22" y="270" class="micro t">"Post-op day 3, wound healing</text><text x="22" y="282" class="micro t">well, started tab. ceftriaxone..."</text><rect class="panel" x="14" y="316" width="76" height="32" rx="6" stroke="#1f1f1f"/><text x="52" y="336" class="tag t" text-anchor="middle">Discard</text><rect class="accent" x="100" y="316" width="76" height="32" rx="6"/><text x="138" y="336" class="tag inv h" text-anchor="middle">Save → sheet</text></g>
  <text x="765" y="520" class="anno" text-anchor="middle">4 · Voice note recorder</text>
  <text x="765" y="534" class="annoSub" text-anchor="middle">STT live · Dx/Rx generated</text>
  <g transform="translate(880,120)"><rect class="phone" width="190" height="380" rx="20"/><rect class="topnav" x="10" y="10" width="170" height="22" rx="4"/><text x="18" y="25" class="tag inv">Session history</text><text x="14" y="58" class="sub h t">Current session: 8 captures</text><g transform="translate(14,72)"><rect class="panel" width="162" height="46" rx="4"/><rect class="placeholder" x="6" y="6" width="30" height="34" rx="3"/><text x="44" y="20" class="tag h t">POSTOP_WOUND_01</text><text x="44" y="32" class="micro green">✓ Uploaded · 4.2 MB</text></g><g transform="translate(14,124)"><rect class="panel" width="162" height="46" rx="4"/><rect class="placeholder" x="6" y="6" width="30" height="34" rx="3"/><text x="44" y="20" class="tag h t">SPECIMEN_GROSS_02</text><text x="44" y="32" class="micro amber">↑ Uploading · 65%</text></g><g transform="translate(14,176)"><rect class="panel" width="162" height="46" rx="4"/><rect class="placeholder" x="6" y="6" width="30" height="34" rx="3"/><text x="44" y="20" class="tag h t">LAB_REPORT_FINAL</text><text x="44" y="32" class="micro red">✗ Failed · Retry</text></g><g transform="translate(14,228)"><rect class="panel" width="162" height="46" rx="4"/><rect class="placeholder" x="6" y="6" width="30" height="34" rx="3"/><text x="44" y="20" class="tag h t">VOICE_ROUND_03</text><text x="44" y="32" class="micro green">✓ Transcribed</text></g><rect class="accentSoft" x="14" y="288" width="162" height="40" rx="6"/><text x="22" y="304" class="tag h t">Protected clinical session</text><text x="22" y="318" class="micro t2">Auto-archived after sign out</text><rect class="panel" x="14" y="340" width="162" height="24" rx="4" stroke="#ccc"/><text x="95" y="356" class="micro t" text-anchor="middle">Uploading 8 files · 65%</text></g>
  <text x="975" y="520" class="anno" text-anchor="middle">5 · Session inbox</text>
  <text x="975" y="534" class="annoSub" text-anchor="middle">Upload status · retry · history</text>
  <g transform="translate(1090,120)"><rect class="phone" width="190" height="380" rx="20"/><rect class="topnav" x="10" y="10" width="170" height="22" rx="4"/><text x="18" y="25" class="tag inv">Lynq co-pilot · OPD</text><rect class="accentSoft" x="14" y="50" width="162" height="44" rx="6"/><text x="22" y="66" class="tag h t">Chief complaint</text><text x="22" y="82" class="micro t2">"chest pain 2 hrs · sweating"</text><text x="14" y="116" class="sub h t">Likely diagnosis</text><rect class="panel" x="14" y="124" width="162" height="20" rx="3" stroke="#ccc"/><text x="20" y="138" class="micro t">Acute MI (I21.9) · 72%</text><rect class="panel" x="14" y="146" width="162" height="20" rx="3" stroke="#ccc"/><text x="20" y="160" class="micro t">Unstable angina (I20.0) · 18%</text><text x="14" y="186" class="sub h t">Capture this now ▾</text><g transform="translate(14,194)"><rect class="redSoft" width="162" height="18" rx="3"/><text x="6" y="13" class="micro t">✗ ECG 12-lead</text></g><g transform="translate(14,216)"><rect class="redSoft" width="162" height="18" rx="3"/><text x="6" y="13" class="micro t">✗ Troponin lab</text></g><g transform="translate(14,238)"><rect class="greenSoft" width="162" height="18" rx="3"/><text x="6" y="13" class="micro t">✓ Consent · signed</text></g><rect class="accent" x="14" y="278" width="162" height="32" rx="6"/><text x="95" y="298" class="tag inv h" text-anchor="middle">Draft pre-auth packet</text><text x="95" y="328" class="micro t2" text-anchor="middle">Empanelment: PMJAY active</text><text x="95" y="340" class="micro t2" text-anchor="middle">NABH valid till 2027</text></g>
  <text x="1185" y="520" class="anno" text-anchor="middle">6 · Doctor co-pilot</text>
  <text x="1185" y="534" class="annoSub" text-anchor="middle">Real-time Dx + required docs</text>
  <text x="40" y="580" class="lbl">B · MedLynq Pulse (web · TPA + financial)</text>
  <g transform="translate(40,600)"><rect class="web" width="400" height="260" rx="6"/><rect class="topnav" x="6" y="6" width="388" height="28" rx="3"/><text x="14" y="24" class="tag inv h">MedLynq Pulse · Dashboard</text><rect class="panel" x="280" y="10" width="106" height="20" rx="3" stroke="#ccc"/><text x="286" y="24" class="micro t2">Search MRN / name…</text><rect class="side" x="6" y="40" width="86" height="214"/><text x="14" y="56" class="micro h t">Filters</text><text x="14" y="72" class="micro t2">Scheme</text><text x="14" y="86" class="micro t2">Payer</text><text x="14" y="100" class="micro t2">Final status</text><text x="14" y="114" class="micro t2">TAT bucket</text><text x="14" y="128" class="micro t2">Missing docs</text><text x="14" y="142" class="micro h amber">Aging &gt; 15d (12)</text><text x="14" y="160" class="micro h t">KPI tiles</text><text x="14" y="174" class="micro t2">Total: 1,284</text><text x="14" y="188" class="micro red">Pending: 42</text><text x="14" y="202" class="micro green">Approved: 94.2%</text><text x="14" y="216" class="micro t2">TAT: 2.4 d</text><g transform="translate(98,46)"><rect class="panel" width="292" height="24" rx="3"/><text x="6" y="16" class="micro h t">Patient ▾ · Scheme · Status · Risk · Aging</text></g><g transform="translate(98,72)"><rect class="panel" width="292" height="24" rx="3"/><text x="6" y="16" class="micro t">Aarav Sharma · PMJAY · ✓ Approved · low · 4d</text></g><g transform="translate(98,98)"><rect class="panel" width="292" height="24" rx="3"/><text x="6" y="16" class="micro t">Priya Varma · CGHS · ! Required · high · 8d</text><rect class="redSoft" x="232" y="4" width="48" height="14" rx="7"/><text x="256" y="14" class="micro red" text-anchor="middle">2 missing</text></g><g transform="translate(98,124)"><rect class="panel" width="292" height="24" rx="3"/><text x="6" y="16" class="micro t">Mohan Lal · ESI · Query · med · 12d</text></g><g transform="translate(98,150)"><rect class="panel" width="292" height="24" rx="3"/><text x="6" y="16" class="micro t">Anita Desai · SHA · ✓ Approved · low · 3d</text></g><g transform="translate(98,176)"><rect class="panel" width="292" height="24" rx="3"/><text x="6" y="16" class="micro t">Vikram Singh · NHA Yojana · Query · high · 18d</text><rect class="redSoft" x="208" y="4" width="72" height="14" rx="7"/><text x="244" y="14" class="micro red" text-anchor="middle">aging risk</text></g><rect class="accentSoft" x="98" y="208" width="292" height="40" rx="4"/><text x="104" y="222" class="micro h t">Recent sync events</text><text x="104" y="234" class="micro t2">HIS pull · REG-2024-9412 · 13 docs fetched</text><text x="104" y="244" class="micro t2">NHCX status webhook · 2 claims updated</text></g>
  <text x="240" y="880" class="anno" text-anchor="middle">7 · Patient list dashboard (TPA)</text>
  <text x="240" y="894" class="annoSub" text-anchor="middle">Multi-scheme view · aging · missing-doc</text>
  <g transform="translate(460,600)"><rect class="web" width="400" height="260" rx="6"/><rect class="topnav" x="6" y="6" width="388" height="28" rx="3"/><text x="14" y="24" class="tag inv h">Johnathan_Doe_MRN99283 · PMJAY</text><rect class="greenSoft" x="240" y="10" width="60" height="20" rx="3"/><text x="270" y="24" class="micro green" text-anchor="middle">Approved</text><text x="6" y="50" class="micro h t">Identity · vitals · timeline</text><rect class="panel" x="6" y="56" width="118" height="200" rx="3"/><text x="12" y="68" class="micro h t">M · 44y · O+</text><text x="12" y="80" class="micro t2">Apollo Multispeciality</text><text x="12" y="92" class="micro t2">PMJAY Gold Tier</text><text x="12" y="110" class="micro h t">Vitals</text><text x="12" y="122" class="micro t2">BP 130/82 · HR 78</text><text x="12" y="134" class="micro t2">Ht 175 · Wt 72</text><text x="12" y="152" class="micro h t">Timeline</text><text x="12" y="164" class="micro green">✓ Payment</text><text x="12" y="174" class="micro green">✓ Final approval</text><text x="12" y="184" class="micro green">✓ Lynq cleared</text><text x="12" y="194" class="micro t2">Case opened 14/06</text><rect class="accent" x="12" y="208" width="100" height="20" rx="3"/><text x="62" y="222" class="micro inv h" text-anchor="middle">Request missing</text><rect class="panel" x="12" y="232" width="100" height="18" rx="3" stroke="#ccc"/><text x="62" y="244" class="micro t" text-anchor="middle">Mark reviewed</text><text x="132" y="50" class="micro h t">Documents &amp; images</text><g transform="translate(132,56)"><rect class="panel" width="60" height="42" rx="3"/><rect class="placeholder" x="4" y="4" width="52" height="24" rx="2"/><text x="6" y="38" class="micro t2">Post-op</text></g><g transform="translate(196,56)"><rect class="panel" width="60" height="42" rx="3"/><rect class="placeholder" x="4" y="4" width="52" height="24" rx="2"/><text x="6" y="38" class="micro t2">HPE</text></g><g transform="translate(260,56)"><rect class="panel" width="60" height="42" rx="3"/><rect class="placeholder" x="4" y="4" width="52" height="24" rx="2"/><text x="6" y="38" class="micro t2">Discharge</text></g><g transform="translate(324,56)"><rect class="panel" width="68" height="42" rx="3"/><rect class="placeholder" x="4" y="4" width="60" height="24" rx="2"/><text x="6" y="38" class="micro t2">Identity</text></g><text x="132" y="116" class="micro h t">Checklist &amp; Lynq validation</text><g transform="translate(132,124)"><rect class="greenSoft" width="80" height="18" rx="3"/><text x="6" y="13" class="micro t">✓ Patient ID</text></g><g transform="translate(216,124)"><rect class="greenSoft" width="80" height="18" rx="3"/><text x="6" y="13" class="micro t">✓ Consent</text></g><g transform="translate(300,124)"><rect class="greenSoft" width="92" height="18" rx="3"/><text x="6" y="13" class="micro t">✓ Referral</text></g><g transform="translate(132,146)"><rect class="greenSoft" width="80" height="18" rx="3"/><text x="6" y="13" class="micro t">✓ HPE</text></g><g transform="translate(216,146)"><rect class="amberSoft" width="80" height="18" rx="3"/><text x="6" y="13" class="micro t">! Discharge</text></g><g transform="translate(300,146)"><rect class="greenSoft" width="92" height="18" rx="3"/><text x="6" y="13" class="micro t">✓ Post-surgery</text></g><g transform="translate(132,168)"><rect class="greenSoft" width="80" height="18" rx="3"/><text x="6" y="13" class="micro t">✓ Vitals</text></g><g transform="translate(216,168)"><rect class="greenSoft" width="80" height="18" rx="3"/><text x="6" y="13" class="micro t">✓ Bill ₹1.45L</text></g><g transform="translate(300,168)"><rect class="redSoft" width="92" height="18" rx="3"/><text x="6" y="13" class="micro t">✗ Add'l report</text></g><rect class="accentSoft" x="132" y="194" width="260" height="58" rx="4"/><text x="138" y="208" class="micro h t">Pre-submission risk</text><text x="138" y="222" class="micro t2">23% query probability — low</text><text x="138" y="234" class="micro t2">Predicted approval: ₹1.32L vs claim ₹1.45L</text><text x="138" y="246" class="micro t2">TAT forecast: 12 days</text></g>
  <text x="660" y="880" class="anno" text-anchor="middle">8 · Patient detail</text>
  <text x="660" y="894" class="annoSub" text-anchor="middle">Identity · vitals · docs · checklist · risk</text>
  <g transform="translate(880,600)"><rect class="web" width="400" height="260" rx="6"/><rect class="topnav" x="6" y="6" width="388" height="28" rx="3"/><text x="14" y="24" class="tag inv h">Document viewer · HPE_POST_OP_PATHOLOGY</text><rect class="placeholder" x="6" y="40" width="240" height="216" rx="3"/><text x="126" y="150" class="sub t2" text-anchor="middle">PDF/image preview</text><rect class="panel" x="250" y="40" width="146" height="216" rx="3"/><text x="256" y="54" class="micro h t">Document intelligence</text><rect class="greenSoft" x="256" y="62" width="80" height="14" rx="7"/><text x="296" y="72" class="micro green" text-anchor="middle">98% confidence</text><text x="256" y="92" class="micro h t">AI normalised name</text><text x="256" y="104" class="micro t2">HPE_REPORT_PATH_20240615.pdf</text><text x="256" y="122" class="micro h t">Source</text><text x="256" y="134" class="micro t2">MedLynq Go · Amit Sharma</text><text x="256" y="146" class="micro t2">15 Jun 2024 · 02:45 PM</text><text x="256" y="164" class="micro h t">OCR snippet</text><text x="256" y="176" class="micro t2">Material: anti-shaving</text><text x="256" y="186" class="micro t2">Site: post-op</text><text x="256" y="196" class="micro t2">Diagnosis: benign</text><text x="256" y="214" class="micro h t">Storage</text><text x="256" y="226" class="micro t2">Orig 5.4 MB → 1.4 MB</text><text x="256" y="236" class="micro green">72% saved</text><rect class="accent" x="256" y="240" width="140" height="12" rx="3"/><text x="326" y="249" class="micro inv h" text-anchor="middle">Download original</text></g>
  <text x="1080" y="880" class="anno" text-anchor="middle">9 · Document viewer modal</text>
  <text x="1080" y="894" class="annoSub" text-anchor="middle">OCR · AI rename · compression · download</text>
  <text x="40" y="930" class="lbl">C · Packet Builder · CFO · Network</text>
  <g transform="translate(40,950)"><rect class="web" width="400" height="280" rx="6"/><rect class="topnav" x="6" y="6" width="388" height="28" rx="3"/><text x="14" y="24" class="tag inv h">Query Packet Builder · Suresh_Kumar_MRN98234</text><rect class="redSoft" x="6" y="40" width="388" height="40" rx="4"/><text x="14" y="54" class="tag h t">Query · "PROVIDE POST OP HPE REPORT"</text><text x="14" y="68" class="micro t2">Raised 16 Jun · ₹40,000 stake · type: missing_doc · age 4d</text><text x="6" y="100" class="micro h t">5-step Packet Builder</text><g transform="translate(6,108)"><rect class="greenSoft" width="74" height="36" rx="3"/><text x="6" y="14" class="micro h green">1 · Arrived</text><text x="6" y="26" class="micro t2">raw text</text></g><g transform="translate(86,108)"><rect class="greenSoft" width="74" height="36" rx="3"/><text x="6" y="14" class="micro h green">2 · Classified</text><text x="6" y="26" class="micro t2">missing_doc 96%</text></g><g transform="translate(166,108)"><rect class="greenSoft" width="74" height="36" rx="3"/><text x="6" y="14" class="micro h green">3 · Located</text><text x="6" y="26" class="micro t2">HPE.pdf · p2-4</text></g><g transform="translate(246,108)"><rect class="amberSoft" width="74" height="36" rx="3"/><text x="6" y="14" class="micro h amber">4 · Drafting…</text><text x="6" y="26" class="micro t2">letter ready</text></g><g transform="translate(326,108)"><rect class="panel" width="68" height="36" rx="3" stroke="#ccc"/><text x="6" y="14" class="micro h t">5 · Submit</text><text x="6" y="26" class="micro t2">pending</text></g><rect class="panel" x="6" y="152" width="240" height="120" rx="3"/><text x="14" y="166" class="micro h t">Generated packet · preview</text><text x="14" y="180" class="micro t2">Cover page · query text + signature</text><text x="14" y="192" class="micro t2">+ HPE_REPORT.pdf (pages 2–4)</text><text x="14" y="204" class="micro t2">+ Discharge summary</text><text x="14" y="216" class="micro t2">+ Doctor's note (Dr Khan)</text><text x="14" y="234" class="micro h t">Filename</text><text x="14" y="246" class="micro t2">Query_Response_0042.pdf · 7 pages</text><text x="14" y="262" class="micro green">Estimated review: 7–14 days</text><rect class="panel" x="250" y="152" width="146" height="120" rx="3"/><text x="256" y="166" class="micro h t">Response letter</text><text x="256" y="180" class="micro t2">"Please find post-op HPE</text><text x="256" y="190" class="micro t2">report attached. Histology</text><text x="256" y="200" class="micro t2">confirms benign material…"</text><text x="256" y="218" class="micro h t">Signed by</text><text x="256" y="230" class="micro t2">Dr A.M. Khan · 16:42</text><rect class="accent" x="256" y="240" width="140" height="20" rx="4"/><text x="326" y="254" class="micro inv h" text-anchor="middle">Submit packet to portal</text></g>
  <text x="240" y="1250" class="anno" text-anchor="middle">10 · Query Packet Builder workflow</text>
  <text x="240" y="1264" class="annoSub" text-anchor="middle">Locate → draft → merge → submit · 45s target</text>
  <g transform="translate(460,950)"><rect class="web" width="400" height="280" rx="6"/><rect class="topnav" x="6" y="6" width="388" height="28" rx="3"/><text x="14" y="24" class="tag inv h">Pulse · CFO Financial Intelligence</text><g transform="translate(6,40)"><rect class="greenSoft" width="92" height="50" rx="4"/><text x="6" y="16" class="micro h t">Revenue at risk</text><text x="6" y="32" class="sub h green">₹ 2.84 Cr</text><text x="6" y="44" class="micro t2">↓ 18% MoM</text></g><g transform="translate(102,40)"><rect class="greenSoft" width="92" height="50" rx="4"/><text x="6" y="16" class="micro h t">Money saved YTD</text><text x="6" y="32" class="sub h green">₹ 1.12 Cr</text><text x="6" y="44" class="micro t2">Disputes won + queries cut</text></g><g transform="translate(198,40)"><rect class="greenSoft" width="92" height="50" rx="4"/><text x="6" y="16" class="micro h t">Query rate</text><text x="6" y="32" class="sub h green">−68%</text><text x="6" y="44" class="micro t2">vs baseline</text></g><g transform="translate(294,40)"><rect class="greenSoft" width="100" height="50" rx="4"/><text x="6" y="16" class="micro h t">TAT</text><text x="6" y="32" class="sub h green">14 days</text><text x="6" y="44" class="micro t2">from 23 · ↓ 9d</text></g><rect class="panel" x="6" y="98" width="240" height="120" rx="3"/><text x="14" y="112" class="micro h t">Query rate trend (12 months)</text><polyline points="14,200 40,196 66,188 92,178 118,162 144,150 170,138 196,124 222,112" fill="none" stroke="#1f8a4c" stroke-width="2"/><text x="14" y="214" class="micro t2">Jan 2026 → Today · downward trend</text><rect class="panel" x="250" y="98" width="146" height="120" rx="3"/><text x="256" y="112" class="micro h t">Underpayment alerts</text><g transform="translate(254,118)"><rect class="redSoft" width="138" height="24" rx="3"/><text x="6" y="14" class="micro red">SG075B · 50% adj · 4 cases</text></g><g transform="translate(254,146)"><rect class="amberSoft" width="138" height="24" rx="3"/><text x="6" y="14" class="micro amber">SC061A · 25% under · 7</text></g><g transform="translate(254,174)"><rect class="amberSoft" width="138" height="24" rx="3"/><text x="6" y="14" class="micro amber">RAD packs · disputed</text></g><rect class="panel" x="6" y="224" width="388" height="48" rx="3"/><text x="14" y="238" class="micro h t">Cash-flow projection · next 90 days</text><text x="14" y="252" class="micro t2">Expected settlement: ₹3.6 Cr · 38% improvement vs Q1</text><text x="14" y="264" class="micro t2">Working capital impact: +14 days runway</text></g>
  <text x="660" y="1250" class="anno" text-anchor="middle">11 · CFO financial intelligence</text>
  <text x="660" y="1264" class="annoSub" text-anchor="middle">₹ locked · saved · query trend · cash flow</text>
  <g transform="translate(880,950)"><rect class="web" width="400" height="280" rx="6"/><rect class="topnav" x="6" y="6" width="388" height="28" rx="3"/><text x="14" y="24" class="tag inv h">Network intelligence · Cross-hospital</text><rect class="accentSoft" x="6" y="40" width="388" height="56" rx="4"/><text x="14" y="56" class="tag h t">⚠ Denial pattern alert</text><text x="14" y="70" class="micro t2">CPD-Trust raised 12 queries for 'chemo chart missing' in last 7 days,</text><text x="14" y="82" class="micro t2">across 4 hospitals. 3× normal rate · recommend pre-attach now</text><text x="6" y="116" class="micro h t">Scheme behaviour insights</text><g transform="translate(6,124)"><rect class="panel" width="190" height="56" rx="3"/><text x="6" y="14" class="micro h t">SHA UP · SG075B</text><text x="6" y="28" class="micro t2">50% adj applied in 78% of cases</text><text x="6" y="40" class="micro t2">Independent of NABH status</text><text x="6" y="52" class="micro amber">Recommend: dispute uniformly</text></g><g transform="translate(202,124)"><rect class="panel" width="192" height="56" rx="3"/><text x="6" y="14" class="micro h t">PMJAY · post-circular 15/03/2026</text><text x="6" y="28" class="micro t2">SC068B approval dropped 32 → 18%</text><text x="6" y="40" class="micro t2">Coverage policy change suspected</text><text x="6" y="52" class="micro amber">Recommend: re-scope before submit</text></g><text x="6" y="200" class="micro h t">Benchmarking (anonymous)</text><g transform="translate(6,208)"><rect class="panel" width="125" height="58" rx="3"/><text x="6" y="14" class="micro h t">Your hospital</text><text x="6" y="28" class="sub h amber">34% reject rate</text><text x="6" y="42" class="micro t2">Oncology · 12mo</text><text x="6" y="54" class="micro t2">Median TAT 16d</text></g><g transform="translate(137,208)"><rect class="panel" width="125" height="58" rx="3"/><text x="6" y="14" class="micro h t">Network median</text><text x="6" y="28" class="sub h t">19%</text><text x="6" y="42" class="micro t2">Same procedure mix</text><text x="6" y="54" class="micro t2">12d</text></g><g transform="translate(268,208)"><rect class="greenSoft" width="126" height="58" rx="3"/><text x="6" y="14" class="micro h green">Top quartile</text><text x="6" y="28" class="sub h green">11%</text><text x="6" y="42" class="micro t2">5 hospitals</text><text x="6" y="54" class="micro t2">9d</text></g></g>
  <text x="1080" y="1250" class="anno" text-anchor="middle">12 · Network intelligence</text>
  <text x="1080" y="1264" class="annoSub" text-anchor="middle">Denial alerts · scheme insights · benchmarking</text>
  <text x="40" y="1300" class="lbl">D · External / specialist surfaces</text>
  <g transform="translate(40,1320)"><rect class="web" width="400" height="260" rx="6"/><rect class="topnav" x="6" y="6" width="388" height="28" rx="3"/><text x="14" y="24" class="tag inv h">Insurer / TPA mirror · read-only</text><rect class="accentSoft" x="6" y="36" width="388" height="20" rx="3"/><text x="14" y="50" class="micro h t">CPD-Trust · 47 cases shared by Apollo · this week</text><rect class="panel" x="6" y="64" width="190" height="190" rx="3"/><text x="14" y="78" class="micro h t">Active case · Suresh_Kumar_MRN98234</text><text x="14" y="92" class="micro t2">CGHS · ₹2.41L · pending query response</text><text x="14" y="106" class="micro h t">Documents on file</text><text x="14" y="118" class="micro green">✓ Patient ID, consent, HPE</text><text x="14" y="130" class="micro green">✓ Discharge, vitals, bills</text><text x="14" y="142" class="micro amber">! Discharge dated 14/06 (verify)</text><text x="14" y="160" class="micro h t">Insurer can</text><text x="14" y="172" class="micro t2">• View evidence</text><text x="14" y="184" class="micro t2">• Raise query inline</text><text x="14" y="196" class="micro t2">• Approve / enhance</text><text x="14" y="208" class="micro red">✗ Cannot edit</text><text x="14" y="220" class="micro red">✗ Cannot download original</text><text x="14" y="232" class="micro red">✗ Cannot see other patients</text><text x="14" y="244" class="micro h accent">All actions audited</text><rect class="panel" x="202" y="64" width="192" height="190" rx="3"/><text x="208" y="78" class="micro h t">Faster resolution (vs portal)</text><rect class="greenSoft" x="208" y="86" width="180" height="36" rx="3"/><text x="216" y="102" class="micro h green">23 day → 11 day median</text><text x="216" y="114" class="micro t2">Across mirrored claims, all schemes</text><text x="208" y="138" class="micro h t">Action: raise inline query</text><rect class="panel" x="208" y="146" width="180" height="40" rx="3" stroke="#ccc"/><text x="214" y="160" class="micro t2">"Need clarification on adj factor</text><text x="214" y="170" class="micro t2">for SC061A — pricing benchmark"</text><text x="214" y="180" class="micro t2">Type ▾ pricing</text><rect class="accent" x="208" y="194" width="180" height="22" rx="3"/><text x="298" y="208" class="micro inv h" text-anchor="middle">Send query to hospital</text><text x="208" y="228" class="micro h t">Activity log (visible)</text><text x="208" y="240" class="micro t2">3 queries raised · 2 resolved · 1 open</text></g>
  <text x="240" y="1600" class="anno" text-anchor="middle">13 · Insurer-side mirror</text>
  <text x="240" y="1614" class="annoSub" text-anchor="middle">Read-only · inline query · audited actions</text>
  <g transform="translate(460,1320)"><rect class="web" width="400" height="260" rx="6"/><rect class="topnav" x="6" y="6" width="388" height="28" rx="3"/><text x="14" y="24" class="tag inv h">Admin · Integrations &amp; Mapping</text><text x="6" y="50" class="micro h t">Connected endpoints</text><g transform="translate(6,56)"><rect class="greenSoft" width="124" height="44" rx="3"/><text x="6" y="14" class="micro h t">Practo HIS</text><text x="6" y="26" class="micro green">✓ Online · 41ms</text><text x="6" y="38" class="micro t2">Last sync · just now</text></g><g transform="translate(134,56)"><rect class="greenSoft" width="124" height="44" rx="3"/><text x="6" y="14" class="micro h t">NHA portal</text><text x="6" y="26" class="micro green">✓ Online · 158ms</text><text x="6" y="38" class="micro t2">98% claims sync</text></g><g transform="translate(262,56)"><rect class="greenSoft" width="130" height="44" rx="3"/><text x="6" y="14" class="micro h t">NHCX FHIR R4</text><text x="6" y="26" class="micro green">✓ Online · sandbox</text><text x="6" y="38" class="micro t2">Cert valid till Q4</text></g><g transform="translate(6,104)"><rect class="greenSoft" width="124" height="44" rx="3"/><text x="6" y="14" class="micro h t">CGHS portal</text><text x="6" y="26" class="micro green">✓ Online · Chrome</text><text x="6" y="38" class="micro t2">Scheduled · 30m</text></g><g transform="translate(134,104)"><rect class="redSoft" width="124" height="44" rx="3"/><text x="6" y="14" class="micro h t">Railway portal</text><text x="6" y="26" class="micro red">! Auth required</text><text x="6" y="38" class="micro t2">Re-login needed</text></g><g transform="translate(262,104)"><rect class="greenSoft" width="130" height="44" rx="3"/><text x="6" y="14" class="micro h t">Tally ERP</text><text x="6" y="26" class="micro green">✓ Online · 12 vouchers</text><text x="6" y="38" class="micro t2">Auto-posted today</text></g><text x="6" y="170" class="micro h t">Code mapping summary (ICD ↔ HBP ↔ FHIR)</text><rect class="panel" x="6" y="178" width="252" height="74" rx="3"/><text x="14" y="194" class="micro t2">ICD-10 · A01.0 → HBP · IH-008 → FHIR · CodeSystem/IH</text><text x="14" y="208" class="micro t2">ICD-10 · I21.9 → HBP · SC061A → FHIR · /Claim/item</text><text x="14" y="222" class="micro t2">ICD-10 · C50.9 → HBP · SG075B → FHIR · /Claim/item</text><text x="14" y="238" class="micro amber">2 unmapped · review →</text><rect class="panel" x="262" y="178" width="130" height="74" rx="3"/><text x="270" y="194" class="micro h t">System controls</text><rect class="accent" x="270" y="200" width="116" height="14" rx="3"/><text x="328" y="210" class="micro inv h" text-anchor="middle">Force sync now</text><rect class="panel" x="270" y="218" width="116" height="14" rx="3" stroke="#ccc"/><text x="328" y="228" class="micro t" text-anchor="middle">Export audit log</text><rect class="panel" x="270" y="236" width="116" height="14" rx="3" stroke="#ccc"/><text x="328" y="246" class="micro t" text-anchor="middle">DPDP review</text></g>
  <text x="660" y="1600" class="anno" text-anchor="middle">14 · Admin integrations</text>
  <text x="660" y="1614" class="annoSub" text-anchor="middle">Connector health · code mapping · DPDP</text>
  <g transform="translate(880,1320)"><rect class="phone" width="240" height="260" rx="20"/><rect class="topnav" x="10" y="10" width="220" height="22" rx="4"/><text x="18" y="25" class="tag inv">MedLynq · my care</text><rect class="accentSoft" x="14" y="40" width="212" height="48" rx="6"/><text x="22" y="56" class="tag h t">Hello, Rahul</text><text x="22" y="70" class="micro t2">MRN MC-9902-18A · admitted 14/06</text><text x="22" y="82" class="micro t2">City Hospital · Ward B1 · Dr Khan</text><text x="14" y="106" class="sub h t">Cashless approval</text><rect class="greenSoft" x="14" y="112" width="212" height="40" rx="4"/><text x="22" y="126" class="micro h green">✓ APPROVED · ₹1,45,200</text><text x="22" y="140" class="micro t2">PMJAY · CGHS network · 15/06 11:24</text><text x="14" y="166" class="sub h t">Bill estimate</text><text x="14" y="178" class="micro t2">Hospital total ₹1,32,000 (paid by scheme)</text><text x="14" y="190" class="micro t2">Your share: ₹ 0 · zero co-pay</text><text x="14" y="208" class="sub h t">Discharge readiness</text><rect class="amberSoft" x="14" y="214" width="212" height="20" rx="3"/><text x="22" y="227" class="micro amber">!  Awaiting one document signature</text><rect class="panel" x="14" y="240" width="212" height="16" rx="3" stroke="#ccc"/><text x="120" y="251" class="micro t" text-anchor="middle">View / revoke consent</text></g>
  <g transform="translate(1130,1320)"><rect class="phone" width="150" height="260" rx="20"/><rect class="topnav" x="8" y="10" width="134" height="22" rx="4"/><text x="14" y="25" class="tag inv">CFO digest · 7am</text><text x="12" y="56" class="micro h t">Yesterday</text><rect class="greenSoft" x="12" y="62" width="126" height="44" rx="4"/><text x="18" y="78" class="micro h green">₹ 18.4 L unlocked</text><text x="18" y="92" class="micro t2">Across 6 settled claims</text><text x="18" y="102" class="micro t2">Net +₹ 2.1 L vs Mon</text><text x="12" y="124" class="micro h t">Aging at risk</text><rect class="redSoft" x="12" y="130" width="126" height="20" rx="3"/><text x="18" y="143" class="micro red">3 claims &gt; 15d  · open</text><text x="12" y="166" class="micro h t">Queries open</text><rect class="amberSoft" x="12" y="172" width="126" height="20" rx="3"/><text x="18" y="185" class="micro amber">9 awaiting response</text><text x="12" y="208" class="micro h t">Lynq wins</text><rect class="greenSoft" x="12" y="214" width="126" height="20" rx="3"/><text x="18" y="227" class="micro green">−72% queries this wk</text><rect class="accent" x="12" y="240" width="126" height="14" rx="3"/><text x="75" y="251" class="micro inv h" text-anchor="middle">Open Pulse →</text></g>
  <text x="1080" y="1600" class="anno" text-anchor="middle">15 · Patient portal · CFO mobile push</text>
  <text x="1080" y="1614" class="annoSub" text-anchor="middle">Status · consent · daily digest</text>
  <text x="40" y="1660" class="lbl">Component notes</text>
  <g transform="translate(40,1680)"><rect class="panel" width="1240" height="160" rx="8"/><text x="14" y="24" class="h t">Reading guide</text><text x="14" y="44" class="sub t2">A · Mobile (Go) screens 1–6 — Camera Home is the primary surface. QR + consent step locks the patient identity before any capture (no ambiguity downstream).</text><text x="14" y="60" class="sub t2">Voice notes (4) feed Lynq the same Dx/ICD/Rx fields that handwriting does. Session inbox (5) is the only place "captured but not yet uploaded" items live.</text><text x="14" y="76" class="sub t2">Co-pilot (6) is the upstream wedge — runs in OPD, suggests Dx + required docs before they're missed.</text><text x="14" y="96" class="sub t2">B · Web (Pulse) screens 7–9 — Patient list is the TPA's home. Patient detail consolidates identity + vitals + docs + checklist + risk score on one page.</text><text x="14" y="112" class="sub t2">Document viewer modal (9) is the only place to download originals — every download is audited.</text><text x="14" y="132" class="sub t2">C · Screens 10–12 — Packet Builder (10) is the visible "45 sec query loop" tool. CFO (11) and Network (12) are the upsells beyond TPA users.</text><text x="14" y="148" class="sub t2">D · Screens 13–15 — Insurer mirror enables the two-sided network. Admin keeps integrations healthy. Patient + CFO push surfaces close the loop on visibility.</text></g>
</svg>
