<svg viewBox="0 0 1320 2200" xmlns="http://www.w3.org/2000/svg" font-family="ui-sans-serif, system-ui, sans-serif">
  <title>MedLynq user journeys — TPA clerk, CFO, doctor</title>
  <style>
    .t{fill:#1f1f1f;} .t2{fill:#555;} .t3{fill:#888;} .inv{fill:#fff;}
    .persona{fill:#1f1f1f;}
    .step{fill:#fff;stroke:#999;stroke-width:1.2;}
    .stepActive{fill:#fbeee8;stroke:#c96442;stroke-width:1.6;}
    .accent{fill:#c96442;}
    .accentSoft{fill:#fbeee8;stroke:#c96442;stroke-width:1;}
    .green{fill:#1f8a4c;}
    .greenSoft{fill:#e8f5ee;stroke:#1f8a4c;stroke-width:1;}
    .red{fill:#c43d3d;}
    .redSoft{fill:#fbeaea;stroke:#c43d3d;stroke-width:1;}
    .amber{fill:#c98a1f;}
    .amberSoft{fill:#fbf2dc;stroke:#c98a1f;stroke-width:1;}
    .lane{fill:#fafafa;stroke:#d4d4d4;stroke-width:1;}
    .emoCurve{stroke:#c96442;stroke-width:2;fill:none;}
    .title{font-size:18px;font-weight:700;}
    .lbl{font-size:12px;font-weight:700;letter-spacing:0.5px;text-transform:uppercase;fill:#555;}
    .h{font-size:13px;font-weight:600;}
    .sub{font-size:11px;}
    .tag{font-size:10px;}
    .micro{font-size:9px;}
    .stepN{font-size:11px;font-weight:700;fill:#c96442;}
  </style>
  <rect width="1320" height="2200" fill="#fff"/>
  <text x="40" y="40" class="title t">User journeys — TPA Clerk · CFO · Doctor</text>
  <text x="40" y="58" class="sub t2">Each journey shows persona, stages, screens, emotional arc, and the MedLynq feature each step touches. Read left to right.</text>
  <text x="40" y="100" class="lbl">Journey 1 · TPA Clerk · daily query resolution + Packet Builder</text>
  <g transform="translate(40,118)"><rect class="lane" width="1240" height="580" rx="8"/>
    <g transform="translate(14,14)"><rect class="persona" width="240" height="552" rx="8"/><circle cx="120" cy="60" r="32" fill="#c96442"/><text x="120" y="68" class="h inv" text-anchor="middle">PV</text><text x="120" y="116" class="h inv" text-anchor="middle">Priya Verma</text><text x="120" y="132" class="tag" fill="#aaa" text-anchor="middle">TPA Clerk · 4 years</text><text x="120" y="146" class="tag" fill="#aaa" text-anchor="middle">Apollo Multispeciality</text><text x="16" y="180" class="tag h inv">FRUSTRATIONS TODAY</text><text x="16" y="200" class="micro" fill="#ddd">• 25 min hunting per query</text><text x="16" y="214" class="micro" fill="#ddd">• 6 portals · all manual</text><text x="16" y="228" class="micro" fill="#ddd">• Stayed late 4× last week</text><text x="16" y="242" class="micro" fill="#ddd">• Same query types, daily</text><text x="16" y="276" class="tag h inv">GOALS</text><text x="16" y="296" class="micro" fill="#ddd">• Resolve 15+ queries/day</text><text x="16" y="310" class="micro" fill="#ddd">• Zero aging &gt; 15d</text><text x="16" y="324" class="micro" fill="#ddd">• Leave on time</text><text x="16" y="338" class="micro" fill="#ddd">• Earn TPA team lead</text><text x="16" y="372" class="tag h inv">TOOLS IN MEDLYNQ</text><text x="16" y="392" class="micro" fill="#ddd">• Pulse dashboard</text><text x="16" y="406" class="micro" fill="#ddd">• Packet Builder workflow</text><text x="16" y="420" class="micro" fill="#ddd">• Ask Lynq NL search</text><text x="16" y="434" class="micro" fill="#ddd">• Co-pilot ward push</text><text x="16" y="468" class="tag h inv">SUCCESS METRIC</text><rect x="16" y="476" width="208" height="50" rx="4" fill="#c96442"/><text x="120" y="498" class="h inv" text-anchor="middle">25 min → 45 sec</text><text x="120" y="514" class="micro inv" text-anchor="middle">per query · 2 hrs/day back</text></g>
    <g transform="translate(266,30)"><text x="0" y="0" class="lbl">Step 1 · 09:00</text><g transform="translate(0,10)"><rect class="step" width="155" height="100" rx="6"/><text x="10" y="20" class="stepN">01</text><text x="40" y="20" class="h t">Opens Pulse</text><text x="10" y="38" class="micro t2">42 pending claims</text><text x="10" y="50" class="micro t2">12 aging &gt; 15d (red)</text><text x="10" y="62" class="micro t2">9 queries inbox</text><text x="10" y="80" class="tag accent">→ Patient list</text><text x="10" y="92" class="tag accent">→ Filters · aging buckets</text></g></g>
    <g transform="translate(431,30)"><text x="0" y="0" class="lbl">Step 2 · 09:08</text><g transform="translate(0,10)"><rect class="step" width="155" height="100" rx="6"/><text x="10" y="20" class="stepN">02</text><text x="40" y="20" class="h t">Triages aging</text><text x="10" y="38" class="micro t2">Sorts by query age × ₹</text><text x="10" y="50" class="micro t2">Highest risk first</text><text x="10" y="62" class="micro t2">Notes 3 missing-doc</text><text x="10" y="80" class="tag accent">→ Patient list filters</text><text x="10" y="92" class="tag accent">→ Quick preview row</text></g></g>
    <g transform="translate(596,30)"><text x="0" y="0" class="lbl">Step 3 · 09:15</text><g transform="translate(0,10)"><rect class="step" width="155" height="100" rx="6"/><text x="10" y="20" class="stepN">03</text><text x="40" y="20" class="h t">Sends ward push</text><text x="10" y="38" class="micro t2">3 missing HPE photos</text><text x="10" y="50" class="micro t2">Co-pilot notifies ward</text><text x="10" y="62" class="micro t2">Receives ETAs</text><text x="10" y="80" class="tag accent">→ Co-pilot module</text><text x="10" y="92" class="tag accent">→ Ward request panel</text></g></g>
    <g transform="translate(761,30)"><text x="0" y="0" class="lbl">Step 4 · 10:42</text><g transform="translate(0,10)"><rect class="stepActive" width="155" height="100" rx="6"/><text x="10" y="20" class="stepN">04</text><text x="40" y="20" class="h t">Query arrives</text><text x="10" y="38" class="micro t2">"PROVIDE POST OP HPE"</text><text x="10" y="50" class="micro t2">Suresh Kumar · CGHS</text><text x="10" y="62" class="micro t2">₹40k · aging 4d</text><text x="10" y="80" class="tag accent">→ Queries inbox</text><text x="10" y="92" class="tag accent">→ Notification badge</text></g></g>
    <g transform="translate(926,30)"><text x="0" y="0" class="lbl">Step 5 · 10:43</text><g transform="translate(0,10)"><rect class="stepActive" width="155" height="100" rx="6"/><text x="10" y="20" class="stepN">05</text><text x="40" y="20" class="h t">Opens Packet Builder</text><text x="10" y="38" class="micro t2">5-step workflow loads</text><text x="10" y="50" class="micro t2">Lynq pre-runs steps 1-3</text><text x="10" y="62" class="micro t2">Doc located on file p2-4</text><text x="10" y="80" class="tag accent">→ Query Packet Builder</text><text x="10" y="92" class="tag accent">→ Evidence Locator</text></g></g>
    <g transform="translate(1091,30)"><text x="0" y="0" class="lbl">Step 6 · 10:44</text><g transform="translate(0,10)"><rect class="stepActive" width="155" height="100" rx="6"/><text x="10" y="20" class="stepN">06</text><text x="40" y="20" class="h t">Reviews draft</text><text x="10" y="38" class="micro t2">Response letter ready</text><text x="10" y="50" class="micro t2">Edits one phrase</text><text x="10" y="62" class="micro t2">Routes to Dr Khan</text><text x="10" y="80" class="tag accent">→ Response drafter</text><text x="10" y="92" class="tag accent">→ Doctor sign request</text></g></g>
    <g transform="translate(266,150)"><text x="0" y="0" class="lbl">Step 7 · 10:47</text><g transform="translate(0,10)"><rect class="stepActive" width="155" height="100" rx="6"/><text x="10" y="20" class="stepN">07</text><text x="40" y="20" class="h t">Doctor signs (mobile)</text><text x="10" y="38" class="micro t2">Dr Khan reviews on Go</text><text x="10" y="50" class="micro t2">Taps "sign"</text><text x="10" y="62" class="micro t2">Packet auto-assembles</text><text x="10" y="80" class="tag accent">→ Go · sign request</text><text x="10" y="92" class="tag accent">→ Packet Builder · merge</text></g></g>
    <g transform="translate(431,150)"><text x="0" y="0" class="lbl">Step 8 · 10:48</text><g transform="translate(0,10)"><rect class="stepActive" width="155" height="100" rx="6"/><text x="10" y="20" class="stepN">08</text><text x="40" y="20" class="h t">Submits packet</text><text x="10" y="38" class="micro t2">Query_Response_0042.pdf</text><text x="10" y="50" class="micro t2">7 pages · auto-uploaded</text><text x="10" y="62" class="micro t2">Total: 45 seconds</text><text x="10" y="80" class="tag accent">→ Submit packet button</text><text x="10" y="92" class="tag accent">→ Status webhook</text></g></g>
    <g transform="translate(596,150)"><text x="0" y="0" class="lbl">Step 9 · 11:00</text><g transform="translate(0,10)"><rect class="step" width="155" height="100" rx="6"/><text x="10" y="20" class="stepN">09</text><text x="40" y="20" class="h t">Next 8 queries</text><text x="10" y="38" class="micro t2">Same flow · all ~1 min</text><text x="10" y="50" class="micro t2">2 escalated to billing</text><text x="10" y="62" class="micro t2">6 resolved + sent</text><text x="10" y="80" class="tag accent">→ Bulk Packet Builder</text><text x="10" y="92" class="tag accent">→ Manual escalation</text></g></g>
    <g transform="translate(761,150)"><text x="0" y="0" class="lbl">Step 10 · 13:00</text><g transform="translate(0,10)"><rect class="step" width="155" height="100" rx="6"/><text x="10" y="20" class="stepN">10</text><text x="40" y="20" class="h t">Lunch · on time</text><text x="10" y="38" class="micro t2">14 queries resolved</text><text x="10" y="50" class="micro t2">vs 6 baseline</text><text x="10" y="62" class="micro t2">First time in months</text><text x="10" y="80" class="tag accent">→ —</text></g></g>
    <g transform="translate(926,150)"><text x="0" y="0" class="lbl">Step 11 · 17:30</text><g transform="translate(0,10)"><rect class="step" width="155" height="100" rx="6"/><text x="10" y="20" class="stepN">11</text><text x="40" y="20" class="h t">End of day</text><text x="10" y="38" class="micro t2">22 queries closed</text><text x="10" y="50" class="micro t2">Zero aging &gt; 15d</text><text x="10" y="62" class="micro t2">Leaves at 18:00</text><text x="10" y="80" class="tag accent">→ Pulse dashboard</text><text x="10" y="92" class="tag accent">→ Daily summary</text></g></g>
    <g transform="translate(1091,150)"><text x="0" y="0" class="lbl">Step 12 · Friday</text><g transform="translate(0,10)"><rect class="step" width="155" height="100" rx="6"/><text x="10" y="20" class="stepN">12</text><text x="40" y="20" class="h t">Weekly review</text><text x="10" y="38" class="micro t2">Personal benchmark</text><text x="10" y="50" class="micro t2">Resolution time top 5%</text><text x="10" y="62" class="micro t2">Promoted lead candidate</text><text x="10" y="80" class="tag accent">→ Benchmarking</text></g></g>
    <g transform="translate(266,290)"><rect width="980" height="100" rx="6" fill="#fff" stroke="#ccc"/><text x="14" y="22" class="h t">Emotional arc</text><text x="14" y="38" class="micro t2">Tracks Priya's feeling at each step. Up = confident · Down = stressed.</text><line x1="14" y1="78" x2="966" y2="78" stroke="#ccc" stroke-dasharray="3 3"/><text x="970" y="80" class="micro t3">neutral</text><polyline points="40,82 122,86 204,72 286,76 368,62 450,60 532,58 614,55 696,52 778,52 860,48 940,46" class="emoCurve"/><circle cx="40" cy="82" r="4" class="amber"/><circle cx="122" cy="86" r="4" class="red"/><circle cx="204" cy="72" r="4" class="amber"/><circle cx="286" cy="76" r="4" class="amber"/><circle cx="368" cy="62" r="4" class="accent"/><circle cx="450" cy="60" r="4" class="accent"/><circle cx="532" cy="58" r="4" class="accent"/><circle cx="614" cy="55" r="4" class="green"/><circle cx="696" cy="52" r="4" class="green"/><circle cx="778" cy="52" r="4" class="green"/><circle cx="860" cy="48" r="4" class="green"/><circle cx="940" cy="46" r="4" class="green"/><text x="40" y="98" class="micro t2" text-anchor="middle">cautious</text><text x="122" y="98" class="micro red" text-anchor="middle">overwhelmed</text><text x="204" y="98" class="micro amber" text-anchor="middle">focused</text><text x="286" y="98" class="micro amber" text-anchor="middle">alert</text><text x="368" y="98" class="micro accent" text-anchor="middle">in control</text><text x="450" y="98" class="micro accent" text-anchor="middle">confident</text><text x="532" y="98" class="micro accent" text-anchor="middle">smooth</text><text x="614" y="98" class="micro green" text-anchor="middle">delighted</text><text x="696" y="98" class="micro green" text-anchor="middle">satisfied</text><text x="778" y="98" class="micro green" text-anchor="middle">proud</text><text x="860" y="98" class="micro green" text-anchor="middle">light</text><text x="940" y="98" class="micro green" text-anchor="middle">recognised</text></g>
    <g transform="translate(266,408)"><rect class="accentSoft" width="980" height="140" rx="6"/><text x="14" y="22" class="h t">Zoom · Packet Builder workflow (steps 4–8 above)</text><text x="14" y="38" class="micro t2">The thing that turns 25 minutes into 45 seconds. Lynq pre-runs steps 1-3 before Priya even opens the case.</text><g transform="translate(14,50)"><rect class="greenSoft" width="180" height="76" rx="4"/><text x="10" y="20" class="tag h green">1 · Arrived (auto)</text><text x="10" y="36" class="micro t2">Raw query pulled</text><text x="10" y="48" class="micro t2">CommunicationRequest</text><text x="10" y="60" class="micro t2">Aging clock starts</text><text x="10" y="72" class="micro accent">Owner: Lynq · 0 sec</text></g><g transform="translate(204,50)"><rect class="greenSoft" width="180" height="76" rx="4"/><text x="10" y="20" class="tag h green">2 · Classified (auto)</text><text x="10" y="36" class="micro t2">10-type model</text><text x="10" y="48" class="micro t2">"missing_doc" · 96% conf</text><text x="10" y="60" class="micro t2">Routing rule fires</text><text x="10" y="72" class="micro accent">Owner: Lynq · 2 sec</text></g><g transform="translate(394,50)"><rect class="greenSoft" width="180" height="76" rx="4"/><text x="10" y="20" class="tag h green">3 · Located (auto)</text><text x="10" y="36" class="micro t2">Evidence Locator</text><text x="10" y="48" class="micro t2">HPE.pdf · pages 2–4</text><text x="10" y="60" class="micro t2">If missing → ward push</text><text x="10" y="72" class="micro accent">Owner: Lynq · 4 sec</text></g><g transform="translate(584,50)"><rect class="amberSoft" width="180" height="76" rx="4"/><text x="10" y="20" class="tag h amber">4 · Drafted (Lynq + Priya)</text><text x="10" y="36" class="micro t2">Template per query type</text><text x="10" y="48" class="micro t2">Pre-attached evidence</text><text x="10" y="60" class="micro t2">Doctor signs on Go</text><text x="10" y="72" class="micro accent">Owner: Doctor · 30 sec</text></g><g transform="translate(774,50)"><rect class="accentSoft" width="192" height="76" rx="4"/><text x="10" y="20" class="tag h accent">5 · Packed + sent (Lynq)</text><text x="10" y="36" class="micro t2">Cover page + merge PDFs</text><text x="10" y="48" class="micro t2">Query_Response_0042.pdf</text><text x="10" y="60" class="micro t2">Submit + timeline update</text><text x="10" y="72" class="micro accent">Owner: Lynq · 7 sec</text></g></g>
  </g>
  <text x="40" y="730" class="lbl">Journey 2 · CFO · weekly financial intelligence</text>
  <g transform="translate(40,748)"><rect class="lane" width="1240" height="440" rx="8"/>
    <g transform="translate(14,14)"><rect class="persona" width="240" height="412" rx="8"/><circle cx="120" cy="60" r="32" fill="#1f8a4c"/><text x="120" y="68" class="h inv" text-anchor="middle">SK</text><text x="120" y="116" class="h inv" text-anchor="middle">Sameer Khan</text><text x="120" y="132" class="tag" fill="#aaa" text-anchor="middle">CFO · 12 years</text><text x="120" y="146" class="tag" fill="#aaa" text-anchor="middle">200-bed hospital chain</text><text x="16" y="180" class="tag h inv">FRUSTRATIONS TODAY</text><text x="16" y="200" class="micro" fill="#ddd">• No view of ₹ locked</text><text x="16" y="214" class="micro" fill="#ddd">• Surprised by underpays</text><text x="16" y="228" class="micro" fill="#ddd">• Bank line stretched</text><text x="16" y="242" class="micro" fill="#ddd">• Board asks: "how much?"</text><text x="16" y="276" class="tag h inv">GOALS</text><text x="16" y="296" class="micro" fill="#ddd">• Unlock 50% locked ₹</text><text x="16" y="310" class="micro" fill="#ddd">• Forecast cash flow</text><text x="16" y="324" class="micro" fill="#ddd">• Win underpayment disputes</text><text x="16" y="358" class="tag h inv">SUCCESS METRIC</text><rect x="16" y="366" width="208" height="38" rx="4" fill="#1f8a4c"/><text x="120" y="390" class="h inv" text-anchor="middle">₹1.12 Cr unlocked YTD</text></g>
    <g transform="translate(266,30)"><text x="0" y="0" class="lbl">Step 1 · 07:00</text><g transform="translate(0,10)"><rect class="stepActive" width="155" height="100" rx="6"/><text x="10" y="20" class="stepN">01</text><text x="40" y="20" class="h t">Mobile push</text><text x="10" y="38" class="micro t2">CFO digest at breakfast</text><text x="10" y="50" class="micro t2">₹18.4L unlocked y'day</text><text x="10" y="62" class="micro t2">3 aging &gt; 15d alert</text><text x="10" y="80" class="tag accent">→ Daily digest push ✦L</text></g></g>
    <g transform="translate(431,30)"><text x="0" y="0" class="lbl">Step 2 · 07:05</text><g transform="translate(0,10)"><rect class="step" width="155" height="100" rx="6"/><text x="10" y="20" class="stepN">02</text><text x="40" y="20" class="h t">Opens Pulse</text><text x="10" y="38" class="micro t2">CFO dashboard loads</text><text x="10" y="50" class="micro t2">₹2.84 Cr at risk</text><text x="10" y="62" class="micro t2">−18% MoM</text><text x="10" y="80" class="tag accent">→ CFO dashboard</text><text x="10" y="92" class="tag accent">→ KPI tiles</text></g></g>
    <g transform="translate(596,30)"><text x="0" y="0" class="lbl">Step 3 · 09:30</text><g transform="translate(0,10)"><rect class="step" width="155" height="100" rx="6"/><text x="10" y="20" class="stepN">03</text><text x="40" y="20" class="h t">Drills into alerts</text><text x="10" y="38" class="micro t2">Underpayment SG075B</text><text x="10" y="50" class="micro t2">50% adj × 4 cases</text><text x="10" y="62" class="micro t2">Total at stake: ₹2.8L</text><text x="10" y="80" class="tag accent">→ Underpayment alerts</text><text x="10" y="92" class="tag accent">→ Drill-down view</text></g></g>
    <g transform="translate(761,30)"><text x="0" y="0" class="lbl">Step 4 · 09:45</text><g transform="translate(0,10)"><rect class="step" width="155" height="100" rx="6"/><text x="10" y="20" class="stepN">04</text><text x="40" y="20" class="h t">Network intel</text><text x="10" y="38" class="micro t2">"SHA UP · SG075B"</text><text x="10" y="50" class="micro t2">78% see 50% adj</text><text x="10" y="62" class="micro t2">→ Dispute justified</text><text x="10" y="80" class="tag accent">→ Network intel</text><text x="10" y="92" class="tag accent">→ Scheme behaviour</text></g></g>
    <g transform="translate(926,30)"><text x="0" y="0" class="lbl">Step 5 · 10:00</text><g transform="translate(0,10)"><rect class="step" width="155" height="100" rx="6"/><text x="10" y="20" class="stepN">05</text><text x="40" y="20" class="h t">Triggers dispute</text><text x="10" y="38" class="micro t2">Adds to weekly batch</text><text x="10" y="50" class="micro t2">Assigns to TPA team</text><text x="10" y="62" class="micro t2">Network evidence cited</text><text x="10" y="80" class="tag accent">→ Dispute workflow</text><text x="10" y="92" class="tag accent">→ TPA escalation</text></g></g>
    <g transform="translate(1091,30)"><text x="0" y="0" class="lbl">Step 6 · 14:00</text><g transform="translate(0,10)"><rect class="step" width="155" height="100" rx="6"/><text x="10" y="20" class="stepN">06</text><text x="40" y="20" class="h t">Board prep</text><text x="10" y="38" class="micro t2">Downloads CFO report</text><text x="10" y="50" class="micro t2">Cash-flow projection</text><text x="10" y="62" class="micro t2">Quarter-vs-quarter view</text><text x="10" y="80" class="tag accent">→ Export → PDF</text><text x="10" y="92" class="tag accent">→ Cash forecast</text></g></g>
    <g transform="translate(266,150)"><text x="0" y="0" class="lbl">Step 7 · 16:00</text><g transform="translate(0,10)"><rect class="step" width="155" height="100" rx="6"/><text x="10" y="20" class="stepN">07</text><text x="40" y="20" class="h t">ERP reconciliation</text><text x="10" y="38" class="micro t2">12 UTRs auto-posted</text><text x="10" y="50" class="micro t2">Tally vouchers visible</text><text x="10" y="62" class="micro t2">Zero manual work</text><text x="10" y="80" class="tag accent">→ ERP / Tally sync ✦J</text></g></g>
    <g transform="translate(431,150)"><text x="0" y="0" class="lbl">Step 8 · Friday</text><g transform="translate(0,10)"><rect class="step" width="155" height="100" rx="6"/><text x="10" y="20" class="stepN">08</text><text x="40" y="20" class="h t">Weekly review</text><text x="10" y="38" class="micro t2">TPA performance</text><text x="10" y="50" class="micro t2">Lynq accuracy ↑</text><text x="10" y="62" class="micro t2">Sets next-week goals</text><text x="10" y="80" class="tag accent">→ Benchmarking</text></g></g>
    <g transform="translate(596,150)"><text x="0" y="0" class="lbl">Step 9 · Month-end</text><g transform="translate(0,10)"><rect class="step" width="155" height="100" rx="6"/><text x="10" y="20" class="stepN">09</text><text x="40" y="20" class="h t">Quarterly milestone</text><text x="10" y="38" class="micro t2">₹1.12 Cr unlocked YTD</text><text x="10" y="50" class="micro t2">Disputes won: 22/30</text><text x="10" y="62" class="micro t2">Bank line restored</text><text x="10" y="80" class="tag accent">→ CFO report</text><text x="10" y="92" class="tag accent">→ Quarterly export</text></g></g>
    <g transform="translate(266,270)"><rect width="980" height="100" rx="6" fill="#fff" stroke="#ccc"/><text x="14" y="22" class="h t">Emotional arc · CFO</text><text x="14" y="38" class="micro t2">Becomes strategic when the data is visible and ready.</text><line x1="14" y1="78" x2="966" y2="78" stroke="#ccc" stroke-dasharray="3 3"/><polyline points="40,76 156,68 272,60 388,52 504,48 620,46 736,42 852,40 940,40" class="emoCurve" stroke="#1f8a4c"/><circle cx="40" cy="76" r="4" class="amber"/><circle cx="156" cy="68" r="4" class="accent"/><circle cx="272" cy="60" r="4" class="accent"/><circle cx="388" cy="52" r="4" class="green"/><circle cx="504" cy="48" r="4" class="green"/><circle cx="620" cy="46" r="4" class="green"/><circle cx="736" cy="42" r="4" class="green"/><circle cx="852" cy="40" r="4" class="green"/><circle cx="940" cy="40" r="4" class="green"/><text x="40" y="98" class="micro amber" text-anchor="middle">curious</text><text x="156" y="98" class="micro accent" text-anchor="middle">engaged</text><text x="272" y="98" class="micro accent" text-anchor="middle">decisive</text><text x="388" y="98" class="micro green" text-anchor="middle">validated</text><text x="504" y="98" class="micro green" text-anchor="middle">empowered</text><text x="620" y="98" class="micro green" text-anchor="middle">prepared</text><text x="736" y="98" class="micro green" text-anchor="middle">in control</text><text x="852" y="98" class="micro green" text-anchor="middle">strategic</text><text x="940" y="98" class="micro green" text-anchor="middle">winning</text></g>
  </g>
  <text x="40" y="1220" class="lbl">Journey 3 · Doctor · OPD to claim signature</text>
  <g transform="translate(40,1238)"><rect class="lane" width="1240" height="440" rx="8"/>
    <g transform="translate(14,14)"><rect class="persona" width="240" height="412" rx="8"/><circle cx="120" cy="60" r="32" fill="#2566c8"/><text x="120" y="68" class="h inv" text-anchor="middle">DS</text><text x="120" y="116" class="h inv" text-anchor="middle">Dr Sarah Joshi</text><text x="120" y="132" class="tag" fill="#aaa" text-anchor="middle">Cardiologist · 8 years</text><text x="120" y="146" class="tag" fill="#aaa" text-anchor="middle">Apollo Multispeciality</text><text x="16" y="180" class="tag h inv">FRUSTRATIONS TODAY</text><text x="16" y="200" class="micro" fill="#ddd">• Notes get re-typed</text><text x="16" y="214" class="micro" fill="#ddd">• Sign 60 forms / week</text><text x="16" y="228" class="micro" fill="#ddd">• "Clinical elab" queries</text><text x="16" y="242" class="micro" fill="#ddd">• OPD interrupted by TPA</text><text x="16" y="276" class="tag h inv">GOALS</text><text x="16" y="296" class="micro" fill="#ddd">• Less admin · more care</text><text x="16" y="310" class="micro" fill="#ddd">• Trustworthy AI assist</text><text x="16" y="324" class="micro" fill="#ddd">• Lower personal query %</text><text x="16" y="358" class="tag h inv">SUCCESS METRIC</text><rect x="16" y="366" width="208" height="38" rx="4" fill="#2566c8"/><text x="120" y="390" class="h inv" text-anchor="middle">8% query rate (top 5%)</text></g>
    <g transform="translate(266,30)"><text x="0" y="0" class="lbl">Step 1 · 10:00</text><g transform="translate(0,10)"><rect class="step" width="155" height="100" rx="6"/><text x="10" y="20" class="stepN">01</text><text x="40" y="20" class="h t">OPD patient arrives</text><text x="10" y="38" class="micro t2">Chest pain · 2 hrs</text><text x="10" y="50" class="micro t2">Sweating, anxious</text><text x="10" y="62" class="micro t2">Opens Go on tablet</text><text x="10" y="80" class="tag accent">→ MedLynq Go</text><text x="10" y="92" class="tag accent">→ QR scan patient</text></g></g>
    <g transform="translate(431,30)"><text x="0" y="0" class="lbl">Step 2 · 10:02</text><g transform="translate(0,10)"><rect class="stepActive" width="155" height="100" rx="6"/><text x="10" y="20" class="stepN">02</text><text x="40" y="20" class="h t">Co-pilot opens</text><text x="10" y="38" class="micro t2">Acute MI · 72% likely</text><text x="10" y="50" class="micro t2">"Capture: ECG, troponin"</text><text x="10" y="62" class="micro t2">Empanelment active ✓</text><text x="10" y="80" class="tag accent">→ Doctor co-pilot ✦C</text><text x="10" y="92" class="tag accent">→ Required doc list</text></g></g>
    <g transform="translate(596,30)"><text x="0" y="0" class="lbl">Step 3 · 10:08</text><g transform="translate(0,10)"><rect class="step" width="155" height="100" rx="6"/><text x="10" y="20" class="stepN">03</text><text x="40" y="20" class="h t">Captures ECG</text><text x="10" y="38" class="micro t2">12-lead photo</text><text x="10" y="50" class="micro t2">Co-pilot ticks item</text><text x="10" y="62" class="micro t2">Lynq confidence 99%</text><text x="10" y="80" class="tag accent">→ Capture confirm</text><text x="10" y="92" class="tag accent">→ Auto-attached</text></g></g>
    <g transform="translate(761,30)"><text x="0" y="0" class="lbl">Step 4 · 10:15</text><g transform="translate(0,10)"><rect class="stepActive" width="155" height="100" rx="6"/><text x="10" y="20" class="stepN">04</text><text x="40" y="20" class="h t">Voice dictation</text><text x="10" y="38" class="micro t2">During exam · 90 sec</text><text x="10" y="50" class="micro t2">Hindi + English mix</text><text x="10" y="62" class="micro t2">Live transcript shown</text><text x="10" y="80" class="tag accent">→ Voice notes ✦A</text><text x="10" y="92" class="tag accent">→ Live STT</text></g></g>
    <g transform="translate(926,30)"><text x="0" y="0" class="lbl">Step 5 · 10:18</text><g transform="translate(0,10)"><rect class="stepActive" width="155" height="100" rx="6"/><text x="10" y="20" class="stepN">05</text><text x="40" y="20" class="h t">Lynq case sheet</text><text x="10" y="38" class="micro t2">Dx, ICD, Rx auto-filled</text><text x="10" y="50" class="micro t2">Reasoning + sources</text><text x="10" y="62" class="micro t2">Reviews · 1 edit</text><text x="10" y="80" class="tag accent">→ Voice → sheet</text><text x="10" y="92" class="tag accent">→ Case sheet review</text></g></g>
    <g transform="translate(1091,30)"><text x="0" y="0" class="lbl">Step 6 · 10:20</text><g transform="translate(0,10)"><rect class="step" width="155" height="100" rx="6"/><text x="10" y="20" class="stepN">06</text><text x="40" y="20" class="h t">Signs + pre-auth</text><text x="10" y="38" class="micro t2">Taps "sign"</text><text x="10" y="50" class="micro t2">Pre-auth packet auto</text><text x="10" y="62" class="micro t2">Submitted to scheme</text><text x="10" y="80" class="tag accent">→ e-Sign · Go</text><text x="10" y="92" class="tag accent">→ Pre-auth submit</text></g></g>
    <g transform="translate(266,150)"><text x="0" y="0" class="lbl">Step 7 · Next day</text><g transform="translate(0,10)"><rect class="stepActive" width="155" height="100" rx="6"/><text x="10" y="20" class="stepN">07</text><text x="40" y="20" class="h t">Clinical query</text><text x="10" y="38" class="micro t2">"Clarify procedure"</text><text x="10" y="50" class="micro t2">Lynq drafts response</text><text x="10" y="62" class="micro t2">Doctor signs on Go</text><text x="10" y="80" class="tag accent">→ Response drafter</text><text x="10" y="92" class="tag accent">→ Sign on mobile</text></g></g>
    <g transform="translate(431,150)"><text x="0" y="0" class="lbl">Step 8 · Discharge</text><g transform="translate(0,10)"><rect class="step" width="155" height="100" rx="6"/><text x="10" y="20" class="stepN">08</text><text x="40" y="20" class="h t">Final claim</text><text x="10" y="38" class="micro t2">All docs already on file</text><text x="10" y="50" class="micro t2">No re-capture needed</text><text x="10" y="62" class="micro t2">Approved 11d</text><text x="10" y="80" class="tag accent">→ Pre-auth → claim</text><text x="10" y="92" class="tag accent">→ Evidence reuse</text></g></g>
    <g transform="translate(596,150)"><text x="0" y="0" class="lbl">Step 9 · Monthly</text><g transform="translate(0,10)"><rect class="step" width="155" height="100" rx="6"/><text x="10" y="20" class="stepN">09</text><text x="40" y="20" class="h t">Personal benchmark</text><text x="10" y="38" class="micro t2">Her query rate: 8%</text><text x="10" y="50" class="micro t2">Department median: 22%</text><text x="10" y="62" class="micro t2">Top 5% in network</text><text x="10" y="80" class="tag accent">→ Benchmarking</text><text x="10" y="92" class="tag accent">→ Doctor view</text></g></g>
    <g transform="translate(266,270)"><rect width="980" height="100" rx="6" fill="#fff" stroke="#ccc"/><text x="14" y="22" class="h t">Emotional arc · Doctor</text><text x="14" y="38" class="micro t2">Stays focused on patient when AI handles the admin.</text><line x1="14" y1="78" x2="966" y2="78" stroke="#ccc" stroke-dasharray="3 3"/><polyline points="40,72 156,60 272,56 388,52 504,48 620,46 736,46 852,44 940,42" class="emoCurve" stroke="#2566c8"/><circle cx="40" cy="72" r="4" class="amber"/><circle cx="156" cy="60" r="4" class="accent"/><circle cx="272" cy="56" r="4" class="accent"/><circle cx="388" cy="52" r="4" class="green"/><circle cx="504" cy="48" r="4" class="green"/><circle cx="620" cy="46" r="4" class="green"/><circle cx="736" cy="46" r="4" class="green"/><circle cx="852" cy="44" r="4" class="green"/><circle cx="940" cy="42" r="4" class="green"/><text x="40" y="98" class="micro amber" text-anchor="middle">focused</text><text x="156" y="98" class="micro accent" text-anchor="middle">assisted</text><text x="272" y="98" class="micro accent" text-anchor="middle">in flow</text><text x="388" y="98" class="micro green" text-anchor="middle">hands-free</text><text x="504" y="98" class="micro green" text-anchor="middle">trusts AI</text><text x="620" y="98" class="micro green" text-anchor="middle">confident</text><text x="736" y="98" class="micro green" text-anchor="middle">unbothered</text><text x="852" y="98" class="micro green" text-anchor="middle">satisfied</text><text x="940" y="98" class="micro green" text-anchor="middle">recognised</text></g>
  </g>
  <text x="40" y="1710" class="lbl">Reading guide · cross-journey notes</text>
  <g transform="translate(40,1730)"><rect width="1240" height="420" rx="8" fill="#fff" stroke="#d4d4d4"/><text x="14" y="30" class="h t">How these journeys connect</text><text x="14" y="52" class="sub t2">All three personas touch the same patient folder (PatientName_MRN). The doctor captures evidence; the TPA clerk resolves any insurer query; the CFO sees the financial outcome.</text><text x="14" y="74" class="sub t2">No double work — Sarah's voice note becomes the case sheet Priya cites in a packet response, which becomes a settled claim Sameer sees as ₹ unlocked.</text><text x="14" y="110" class="h t">TPA clerk journey · what it proves</text><text x="14" y="130" class="sub t2">• Packet Builder turns 25 min → 45 sec by pre-running steps 1-3 before the clerk even opens the case.</text><text x="14" y="148" class="sub t2">• Doctor signature happens on mobile in &lt; 10 seconds, not by emailing PDFs back and forth.</text><text x="14" y="166" class="sub t2">• Recognition + benchmarking turn ops work into a career path — reduces churn in TPA hiring.</text><text x="14" y="206" class="h t">CFO journey · what it proves</text><text x="14" y="226" class="sub t2">• Mobile push at 7am is the daily hook. The CFO sees the number before the office opens.</text><text x="14" y="244" class="sub t2">• Network intelligence converts a one-off underpayment into a hospital-wide dispute — that's the upsell from TPA tier to CFO add-on.</text><text x="14" y="262" class="sub t2">• ERP/Tally sync removes the only manual step left at month-end. Stickiness via finance team integration.</text><text x="14" y="302" class="h t">Doctor journey · what it proves</text><text x="14" y="322" class="sub t2">• Co-pilot prevents missing-doc queries at the bedside — the upstream wedge that cuts query rate at source.</text><text x="14" y="340" class="sub t2">• Voice + handwriting both feed Lynq the same Dx/ICD/Rx structure — doctor never types into the system.</text><text x="14" y="358" class="sub t2">• Pre-auth packet auto-drafts inside the OPD flow — patient leaves with cashless approved.</text><text x="14" y="376" class="sub t2">• Personal benchmark gives the doctor a reason to keep using Lynq — query rate as a quality signal.</text></g>
</svg>
