<svg viewBox="0 0 1320 2080" xmlns="http://www.w3.org/2000/svg" font-family="ui-sans-serif, system-ui, sans-serif">
  <title>Lynq AI architecture in plain language</title>
  <style>
    .t{fill:#1f1f1f;} .t2{fill:#555;} .t3{fill:#888;} .inv{fill:#fff;}
    .card{fill:#fff;stroke:#999;stroke-width:1.2;}
    .lane{fill:#fafafa;stroke:#d4d4d4;stroke-width:1;}
    .ai{fill:#fbeee8;stroke:#c96442;stroke-width:1.4;}
    .new{fill:#fbeee8;stroke:#c96442;stroke-width:2;}
    .out{fill:#eef2fa;stroke:#2566c8;stroke-width:1.2;}
    .accent{fill:#c96442;}
    .green{fill:#1f8a4c;}
    .line{stroke:#666;stroke-width:1.4;fill:none;}
    .lineA{stroke:#c96442;stroke-width:1.8;fill:none;}
    .title{font-size:18px;font-weight:700;}
    .lbl{font-size:12px;font-weight:700;letter-spacing:0.5px;text-transform:uppercase;fill:#555;}
    .h{font-size:13px;font-weight:600;}
    .sub{font-size:11px;}
    .tag{font-size:10px;}
    .what{font-size:10px;fill:#1f1f1f;}
    .how{font-size:9px;fill:#777;font-style:italic;}
    .badge{font-size:9px;font-weight:700;fill:#c96442;}
  </style>
  <defs>
    <marker id="a" viewBox="0 0 10 10" refX="9" refY="5" markerWidth="6" markerHeight="6" orient="auto"><path d="M0,0 L10,5 L0,10 z" fill="#666"/></marker>
    <marker id="aA" viewBox="0 0 10 10" refX="9" refY="5" markerWidth="6" markerHeight="6" orient="auto"><path d="M0,0 L10,5 L0,10 z" fill="#c96442"/></marker>
  </defs>
  <rect width="1320" height="2080" fill="#fff"/>
  <text x="40" y="40" class="title t">Lynq — AI architecture in plain English</text>
  <text x="40" y="60" class="sub t2">Inputs come in (left) · models do specific jobs (middle) · clean structured outputs leave (right) · every output is logged + becomes training data (bottom).</text>
  <text x="40" y="100" class="lbl">1 · What comes in (raw stuff)</text>
  <g transform="translate(40,114)"><rect class="lane" width="1240" height="84" rx="8"/>
    <g transform="translate(14,14)"><rect class="card" width="190" height="56" rx="6"/><text x="10" y="22" class="h t">Photo / image</text><text x="10" y="38" class="what">Post-op, wound, specimen, X-ray</text><text x="10" y="50" class="how">JPEG / PNG · from Go camera</text></g>
    <g transform="translate(216,14)"><rect class="card" width="190" height="56" rx="6"/><text x="10" y="22" class="h t">Handwritten paper</text><text x="10" y="38" class="what">Doctor's case notes</text><text x="10" y="50" class="how">Photo of handwritten page</text></g>
    <g transform="translate(418,14)"><rect class="card" width="190" height="56" rx="6"/><text x="10" y="22" class="h t">Voice recording</text><text x="10" y="38" class="what">Doctor dictation during exam</text><text x="10" y="50" class="how">Hindi · English · regional</text></g>
    <g transform="translate(620,14)"><rect class="card" width="190" height="56" rx="6"/><text x="10" y="22" class="h t">PDFs from HIS</text><text x="10" y="38" class="what">Discharge, bills, reports</text><text x="10" y="50" class="how">Pulled by MRN</text></g>
    <g transform="translate(822,14)"><rect class="card" width="190" height="56" rx="6"/><text x="10" y="22" class="h t">Query text</text><text x="10" y="38" class="what">"PROVIDE POST OP HPE"</text><text x="10" y="50" class="how">From portals · NHCX webhook</text></g>
    <g transform="translate(1024,14)"><rect class="card" width="202" height="56" rx="6"/><text x="10" y="22" class="h t">Structured claim data</text><text x="10" y="38" class="what">Codes, amounts, dates, status</text><text x="10" y="50" class="how">From scheme portals + HIS</text></g>
  </g>
  <path class="line" d="M660,198 V228" marker-end="url(#a)"/>
  <text x="40" y="218" class="lbl">2 · Pre-processing (clean it up first)</text>
  <g transform="translate(40,232)"><rect class="lane" width="1240" height="86" rx="8"/>
    <g transform="translate(14,14)"><rect class="card" width="290" height="58" rx="6"/><text x="10" y="22" class="h t">Quality check + compress</text><text x="10" y="38" class="what">Drop blurry shots · keep originals safe</text><text x="10" y="50" class="how">Vision QC model · perceptual hash dedupe</text></g>
    <g transform="translate(326,14)"><rect class="card" width="290" height="58" rx="6"/><text x="10" y="22" class="h t">Language + script detect</text><text x="10" y="38" class="what">Hindi · English · Marathi · Bangla</text><text x="10" y="50" class="how">Routes to the right OCR/STT</text></g>
    <g transform="translate(638,14)"><rect class="card" width="290" height="58" rx="6"/><text x="10" y="22" class="h t">PII detect + redact</text><text x="10" y="38" class="what">Aadhaar masked · name hashed</text><text x="10" y="50" class="how">Before anything leaves the tenant</text></g>
    <g transform="translate(950,14)"><rect class="card" width="276" height="58" rx="6"/><text x="10" y="22" class="h t">Patient match</text><text x="10" y="38" class="what">MRN · name · DOB fuzzy join</text><text x="10" y="50" class="how">Lands artefact in right folder</text></g>
  </g>
  <path class="line" d="M660,318 V348" marker-end="url(#a)"/>
  <text x="40" y="338" class="lbl">3 · The 12 Lynq models (what each one does, in one sentence)</text>
  <g transform="translate(40,352)"><rect class="ai" width="1240" height="540" rx="8"/>
    <text x="14" y="22" class="h accent">Lynq model zoo — each model is small, specialized, replaceable</text>
    <text x="14" y="44" class="lbl">A · Extraction · turn raw stuff into structured fields</text>
    <g transform="translate(14,54)"><rect class="card" width="296" height="92" rx="6"/><text x="10" y="22" class="h t">1 · Handwriting reader</text><text x="10" y="40" class="what">Reads doctor's scrawl from a photo and types it out.</text><text x="10" y="54" class="what">Returns: Dx, ICD, Rx, meds, confidence per field.</text><text x="10" y="74" class="how">Tech: vision-language model fine-tuned on Indian medical script.</text><text x="10" y="86" class="how">Starts as Claude/GPT vision, replaced by fine-tuned small model later.</text></g>
    <g transform="translate(318,54)"><rect class="card" width="296" height="92" rx="6"/><text x="10" y="22" class="h t">2 · Voice transcriber</text><text x="10" y="40" class="what">Listens to doctor dictating · writes it out.</text><text x="10" y="54" class="what">Same Dx/ICD/Rx output structure as handwriting.</text><text x="10" y="74" class="how">Tech: Whisper-class STT with Hindi + English code-switch.</text><text x="10" y="86" class="how">Live transcript shown while recording.</text></g>
    <g transform="translate(622,54)"><rect class="card" width="296" height="92" rx="6"/><text x="10" y="22" class="h t">3 · Document OCR + extractor</text><text x="10" y="40" class="what">Reads PDFs and JPEGs · pulls fields out.</text><text x="10" y="54" class="what">Per-page text + extracted facts (procedure, date, ₹).</text><text x="10" y="74" class="how">Tech: layout-aware OCR (LayoutLM family) + structured LLM extraction.</text><text x="10" y="86" class="how">Feeds Evidence Index.</text></g>
    <g transform="translate(926,54)"><rect class="card" width="300" height="92" rx="6"/><text x="10" y="22" class="h t">4 · Image classifier (doc type)</text><text x="10" y="40" class="what">Looks at any image · says "this is an HPE / OT / consent / etc."</text><text x="10" y="54" class="what">Tags + confidence → checklist update.</text><text x="10" y="74" class="how">Tech: small CNN fine-tuned on labelled hospital doc corpus.</text><text x="10" y="86" class="how">Runs at capture for instant tagging.</text></g>
    <text x="14" y="170" class="lbl">B · Intelligence · predict, classify, decide</text>
    <g transform="translate(14,180)"><rect class="ai" width="296" height="92" rx="6"/><text x="10" y="22" class="h t">5 · Query classifier (10 types)</text><text x="10" y="40" class="what">Reads the insurer's query · says which of 10 types it is.</text><text x="10" y="54" class="what">missing_doc · code_mismatch · clinical_elab · …</text><text x="10" y="74" class="how">Tech: prompt-based LLM → fine-tuned small model (Llama/Mistral).</text><text x="10" y="86" class="how">Accuracy ladder 75% → 92% → 96% as data grows.</text></g>
    <g transform="translate(318,180)"><rect class="ai" width="296" height="92" rx="6"/><text x="10" y="22" class="h t">6 · Pre-submission risk scorer</text><text x="10" y="40" class="what">Looks at a draft claim · predicts query probability.</text><text x="10" y="54" class="what">"67% query risk — top reason: HPE missing".</text><text x="10" y="74" class="how">Tech: XGBoost on 60+ tabular features (scheme, procedure, docs).</text><text x="10" y="86" class="how">Calibrated probability + reason code.</text></g>
    <g transform="translate(622,180)"><rect class="ai" width="296" height="92" rx="6"/><text x="10" y="22" class="h t">7 · Approval predictor</text><text x="10" y="40" class="what">Estimates what the insurer will approve.</text><text x="10" y="54" class="what">Expected ₹ · adj-factor anomaly flag · TAT in days.</text><text x="10" y="74" class="how">Tech: gradient-boosted regression + isolation-forest anomaly check.</text><text x="10" y="86" class="how">Non-binding (decision support, not auto-action).</text></g>
    <g transform="translate(926,180)"><rect class="ai" width="300" height="92" rx="6"/><text x="10" y="22" class="h t">8 · Doctor co-pilot <tspan class="badge">NEW</tspan></text><text x="10" y="40" class="what">Watches OPD context · suggests likely Dx + required docs.</text><text x="10" y="54" class="what">"Capture ECG, troponin now — needed for cashless".</text><text x="10" y="74" class="how">Tech: RAG over scheme docs + chief-complaint LLM prompt chain.</text><text x="10" y="86" class="how">Prevents queries upstream, not downstream.</text></g>
    <text x="14" y="296" class="lbl">C · Retrieval + drafting · find the evidence, write the response</text>
    <g transform="translate(14,306)"><rect class="new" width="296" height="92" rx="6"/><text x="10" y="22" class="h t">9 · Evidence Locator <tspan class="badge">NEW · v2</tspan></text><text x="10" y="40" class="what">Asked "do we have the HPE?" → answers with file + page.</text><text x="10" y="54" class="what">Semantic + keyword hybrid search.</text><text x="10" y="74" class="how">Tech: pgvector embeddings + Elasticsearch BM25 + reranker.</text><text x="10" y="86" class="how">The retrieval wedge — the simplest, highest-ROI module.</text></g>
    <g transform="translate(318,306)"><rect class="ai" width="296" height="92" rx="6"/><text x="10" y="22" class="h t">10 · Ask Lynq (NL search) <tspan class="badge">NEW</tspan></text><text x="10" y="40" class="what">Clerk types "OT date?" · gets answer from folder.</text><text x="10" y="54" class="what">Cites the source document + page number.</text><text x="10" y="74" class="how">Tech: RAG over Evidence Index · LLM with grounding.</text><text x="10" y="86" class="how">Refuses to answer if not in index (no hallucination).</text></g>
    <g transform="translate(622,306)"><rect class="ai" width="296" height="92" rx="6"/><text x="10" y="22" class="h t">11 · Response drafter</text><text x="10" y="40" class="what">Writes the reply to an insurer query · doctor-signable.</text><text x="10" y="54" class="what">Template per query type + pre-attached evidence.</text><text x="10" y="74" class="how">Tech: LLM with few-shot templates from historic responses.</text><text x="10" y="86" class="how">Always editable by clerk + signed by doctor.</text></g>
    <g transform="translate(926,306)"><rect class="ai" width="300" height="92" rx="6"/><text x="10" y="22" class="h t">12 · Network pattern detector</text><text x="10" y="40" class="what">Watches across hospitals · spots anomalies.</text><text x="10" y="54" class="what">"CPD-Trust: 12 chemo queries in 7d, 3× normal".</text><text x="10" y="74" class="how">Tech: statistical anomaly (Prophet/STL) + Bayesian change point.</text><text x="10" y="86" class="how">Only visible at network scale — competitor-proof.</text></g>
    <text x="14" y="422" class="lbl">D · Decision layer · combine model outputs into actions</text>
    <g transform="translate(14,432)"><rect class="card" width="1212" height="92" rx="6"/><text x="14" y="22" class="h t">Routing rules + thresholds + human-in-loop</text><text x="14" y="40" class="sub t2">Each model spits out a confidence score. The decision layer combines them with simple rules:</text><text x="14" y="56" class="sub t2">• If risk &gt; 60% AND missing_doc model fires → block submit + send ward request.</text><text x="14" y="70" class="sub t2">• If classifier confidence &lt; 70% on a query → human reviews before auto-draft.</text><text x="14" y="84" class="sub t2">• If Evidence Locator finds the doc with score &gt; 0.85 → auto-attach. Otherwise show top-3 candidates to clerk.</text></g>
  </g>
  <path class="line" d="M660,892 V922" marker-end="url(#a)"/>
  <text x="40" y="912" class="lbl">4 · What comes out (clean structured stuff)</text>
  <g transform="translate(40,926)"><rect class="out" width="1240" height="98" rx="8"/>
    <g transform="translate(14,14)"><rect class="card" width="190" height="70" rx="6"/><text x="10" y="22" class="h t">Structured case sheet</text><text x="10" y="40" class="what">Dx · ICD · Rx · meds</text><text x="10" y="54" class="what">with reasoning + sources</text></g>
    <g transform="translate(216,14)"><rect class="card" width="190" height="70" rx="6"/><text x="10" y="22" class="h t">Evidence Index entry</text><text x="10" y="40" class="what">Per-page text + tags +</text><text x="10" y="54" class="what">embedding vector</text></g>
    <g transform="translate(418,14)"><rect class="card" width="190" height="70" rx="6"/><text x="10" y="22" class="h t">Risk + prediction scores</text><text x="10" y="40" class="what">Query probability,</text><text x="10" y="54" class="what">expected ₹, TAT days</text></g>
    <g transform="translate(620,14)"><rect class="card" width="190" height="70" rx="6"/><text x="10" y="22" class="h t">Query classification</text><text x="10" y="40" class="what">Type + confidence +</text><text x="10" y="54" class="what">routing rule</text></g>
    <g transform="translate(822,14)"><rect class="card" width="190" height="70" rx="6"/><text x="10" y="22" class="h t">Response packet</text><text x="10" y="40" class="what">Draft letter + located</text><text x="10" y="54" class="what">evidence + cover</text></g>
    <g transform="translate(1024,14)"><rect class="card" width="202" height="70" rx="6"/><text x="10" y="22" class="h t">Network insights</text><text x="10" y="40" class="what">Scheme patterns,</text><text x="10" y="54" class="what">denial alerts</text></g>
  </g>
  <text x="40" y="1054" class="lbl">5 · Feedback flywheel (this is the moat)</text>
  <g transform="translate(40,1068)"><rect class="lane" width="1240" height="240" rx="8"/>
    <text x="14" y="24" class="h t">Every output becomes a labelled training example over time.</text>
    <text x="14" y="42" class="sub t2">The classifier guesses "missing_doc"; weeks later we see whether the insurer accepted the response. That outcome labels the original guess.</text>
    <g transform="translate(20,60)"><circle r="24" class="accent" cx="24" cy="24"/><text x="24" y="29" class="h inv" text-anchor="middle">1</text><text x="60" y="20" class="h t">Lynq predicts</text><text x="60" y="36" class="sub t2">Stored in ai_predictions table</text><text x="60" y="50" class="sub t2">with model name + version</text></g>
    <path class="lineA" d="M260,84 H310" marker-end="url(#aA)"/>
    <g transform="translate(310,60)"><circle r="24" class="accent" cx="24" cy="24"/><text x="24" y="29" class="h inv" text-anchor="middle">2</text><text x="60" y="20" class="h t">User accepts / corrects</text><text x="60" y="36" class="sub t2">"Yes" or override → label</text><text x="60" y="50" class="sub t2">Every click is gold data</text></g>
    <path class="lineA" d="M550,84 H600" marker-end="url(#aA)"/>
    <g transform="translate(600,60)"><circle r="24" class="accent" cx="24" cy="24"/><text x="24" y="29" class="h inv" text-anchor="middle">3</text><text x="60" y="20" class="h t">Outcome arrives</text><text x="60" y="36" class="sub t2">Insurer approves/rejects</text><text x="60" y="50" class="sub t2">→ closes the loop</text></g>
    <path class="lineA" d="M840,84 H890" marker-end="url(#aA)"/>
    <g transform="translate(890,60)"><circle r="24" class="accent" cx="24" cy="24"/><text x="24" y="29" class="h inv" text-anchor="middle">4</text><text x="60" y="20" class="h t">Retrain monthly</text><text x="60" y="36" class="sub t2">Real + synthetic data</text><text x="60" y="50" class="sub t2">A/B test new version</text></g>
    <g transform="translate(14,150)"><rect class="card" width="394" height="76" rx="6"/><text x="14" y="22" class="h t">Synthetic data factory</text><text x="14" y="40" class="sub t2">For rare queries: prompt LLM to generate 20-30 variants of each real case.</text><text x="14" y="54" class="sub t2">Validated by TPA clerk · &lt;20% rejection rate target.</text><text x="14" y="68" class="sub t2">Lets us bootstrap from 1k real cases to ~14k training rows.</text></g>
    <g transform="translate(420,150)"><rect class="card" width="394" height="76" rx="6"/><text x="14" y="22" class="h t">Network pooling (with consent)</text><text x="14" y="40" class="sub t2">Anonymised data across hospitals → cross-scheme patterns no one else sees.</text><text x="14" y="54" class="sub t2">Each hospital's classifier benefits from others' outcomes.</text><text x="14" y="68" class="sub t2">DPDP-compliant. Per-hospital data-sharing agreement.</text></g>
    <g transform="translate(826,150)"><rect class="card" width="400" height="76" rx="6"/><text x="14" y="22" class="h t">Accuracy ladder</text><text x="14" y="40" class="sub t2">v1 prompt-based 75% → v2 fine-tuned 88% → v3 custom 92% → v4 health-claims 96%.</text><text x="14" y="54" class="sub t2">Each tier unlocked by data volume — first mover gets to v4 first.</text><text x="14" y="68" class="sub t2">India's only labelled corpus of government health-claims queries.</text></g>
  </g>
  <text x="40" y="1338" class="lbl">6 · Building blocks under the hood</text>
  <g transform="translate(40,1352)"><rect class="lane" width="1240" height="220" rx="8"/>
    <text x="14" y="24" class="h t">Standard techniques · nothing exotic. Each model uses the simplest tool that works.</text>
    <g transform="translate(14,40)"><rect class="card" width="290" height="80" rx="6"/><text x="10" y="22" class="h t">Prompt-based LLMs (now)</text><text x="10" y="40" class="what">Claude / GPT with few-shot examples + structured</text><text x="10" y="52" class="what">output schemas (JSON mode).</text><text x="10" y="66" class="how">Used for: classifier v1, drafter, co-pilot, Ask Lynq.</text></g>
    <g transform="translate(316,40)"><rect class="card" width="290" height="80" rx="6"/><text x="10" y="22" class="h t">RAG (retrieval-augmented)</text><text x="10" y="40" class="what">LLM grounded in your folder + scheme docs.</text><text x="10" y="52" class="what">Never hallucinates · always cites the source.</text><text x="10" y="66" class="how">Used for: Evidence Locator, Ask Lynq, drafter, co-pilot.</text></g>
    <g transform="translate(618,40)"><rect class="card" width="290" height="80" rx="6"/><text x="10" y="22" class="h t">Fine-tuned small models (later)</text><text x="10" y="40" class="what">Llama 3 / Mistral fine-tuned on your data.</text><text x="10" y="52" class="what">Cheaper + faster than API calls at scale.</text><text x="10" y="66" class="how">Replaces classifier + drafter as data grows.</text></g>
    <g transform="translate(920,40)"><rect class="card" width="306" height="80" rx="6"/><text x="10" y="22" class="h t">Classic ML (XGBoost)</text><text x="10" y="40" class="what">Tabular predictions: risk, approval ₹, TAT.</text><text x="10" y="52" class="what">Explainable: shows top features per prediction.</text><text x="10" y="66" class="how">Used for: risk scorer, approval predictor.</text></g>
    <g transform="translate(14,128)"><rect class="card" width="290" height="78" rx="6"/><text x="10" y="22" class="h t">Embeddings + vector DB</text><text x="10" y="40" class="what">Each doc page → a list of numbers.</text><text x="10" y="52" class="what">Semantic search by similarity.</text><text x="10" y="66" class="how">pgvector inside Postgres · cheap + fast at our scale.</text></g>
    <g transform="translate(316,128)"><rect class="card" width="290" height="78" rx="6"/><text x="10" y="22" class="h t">Keyword + full-text search</text><text x="10" y="40" class="what">Elasticsearch BM25 over per-page OCR text.</text><text x="10" y="52" class="what">Catches exact terms like "HPE", "histopathology".</text><text x="10" y="66" class="how">Hybrid with vector search via reranker.</text></g>
    <g transform="translate(618,128)"><rect class="card" width="290" height="78" rx="6"/><text x="10" y="22" class="h t">Vision OCR</text><text x="10" y="40" class="what">For images: Google Vision / Tesseract / Donut.</text><text x="10" y="52" class="what">For PDFs: LayoutLM family.</text><text x="10" y="66" class="how">Layout-aware so tables and forms parse cleanly.</text></g>
    <g transform="translate(920,128)"><rect class="card" width="306" height="78" rx="6"/><text x="10" y="22" class="h t">Statistical anomaly detection</text><text x="10" y="40" class="what">Spots spikes in denials, query patterns.</text><text x="10" y="52" class="what">Prophet/STL decomposition + Bayesian CP.</text><text x="10" y="66" class="how">Cheap, explainable — no LLM needed here.</text></g>
  </g>
  <text x="40" y="1602" class="lbl">7 · Safety + governance (the boring necessary stuff)</text>
  <g transform="translate(40,1616)"><rect class="lane" width="1240" height="180" rx="8"/>
    <g transform="translate(14,14)"><rect class="card" width="290" height="148" rx="6"/><text x="10" y="22" class="h t">Human-in-loop by default</text><text x="10" y="40" class="sub t2">Lynq never sends a query response without doctor signature.</text><text x="10" y="58" class="sub t2">Never auto-submits a claim without TPA clerk approval.</text><text x="10" y="76" class="sub t2">Low-confidence outputs (&lt;70%) flagged for review.</text><text x="10" y="94" class="sub t2">Every override becomes training data.</text><text x="10" y="116" class="sub h accent">Lynq = co-pilot, not autopilot.</text></g>
    <g transform="translate(316,14)"><rect class="card" width="290" height="148" rx="6"/><text x="10" y="22" class="h t">Hallucination prevention</text><text x="10" y="40" class="sub t2">All facts must cite a source document + page.</text><text x="10" y="58" class="sub t2">If Evidence Locator returns nothing → "not on file" (no guessing).</text><text x="10" y="76" class="sub t2">Drafter only fills templates with verified data.</text><text x="10" y="94" class="sub t2">JSON schemas constrain model outputs.</text><text x="10" y="116" class="sub h accent">Refusal &gt; hallucination.</text></g>
    <g transform="translate(618,14)"><rect class="card" width="290" height="148" rx="6"/><text x="10" y="22" class="h t">DPDP + audit</text><text x="10" y="40" class="sub t2">PII stripped before anything goes to LLM provider.</text><text x="10" y="58" class="sub t2">Aadhaar hashed, names tokenised in prompts.</text><text x="10" y="76" class="sub t2">Per-hospital data isolation (multi-tenant).</text><text x="10" y="94" class="sub t2">All AI calls logged to FHIR AuditEvent.</text><text x="10" y="116" class="sub h accent">Compliance is a feature, not a tax.</text></g>
    <g transform="translate(920,14)"><rect class="card" width="306" height="148" rx="6"/><text x="10" y="22" class="h t">Evaluation + versioning</text><text x="10" y="40" class="sub t2">Every model has a held-out test set.</text><text x="10" y="58" class="sub t2">A/B test new versions on 10% traffic first.</text><text x="10" y="76" class="sub t2">Drift monitors: alert if precision drops &gt; 5%.</text><text x="10" y="94" class="sub t2">Rollback in &lt; 1 hour if something breaks.</text><text x="10" y="116" class="sub h accent">No silent regressions.</text></g>
  </g>
  <text x="40" y="1822" class="lbl">Reading guide</text>
  <g transform="translate(40,1836)"><rect width="1240" height="200" rx="8" fill="#fff" stroke="#d4d4d4"/><text x="14" y="24" class="h t">How to read this</text><text x="14" y="46" class="sub t2">Layer 1 — raw stuff comes in (photos, voice, PDFs, query text).</text><text x="14" y="62" class="sub t2">Layer 2 — pre-processing cleans it up (drops blurry, detects language, strips PII, matches patient).</text><text x="14" y="78" class="sub t2">Layer 3 — twelve small models each do one specific job. Each is replaceable. Start with prompt-based LLMs; replace with fine-tuned smaller models as data grows.</text><text x="14" y="94" class="sub t2">Layer 4 — outputs are structured (JSON, citations, packets). Nothing free-form leaves the brain.</text><text x="14" y="110" class="sub t2">Layer 5 — every output is logged. Outcomes (insurer approve/reject) label the original prediction. Monthly retrain. Synthetic data fills gaps.</text><text x="14" y="126" class="sub t2">Layer 6 — standard techniques throughout (RAG, fine-tuning, XGBoost, embeddings, OCR, statistical anomaly). Nothing experimental.</text><text x="14" y="142" class="sub t2">Layer 7 — guardrails: human-in-loop, no hallucination, DPDP-safe, versioned + evaluated.</text><text x="14" y="166" class="h accent">The whole architecture says one thing: small + specialised + grounded + logged. Lynq doesn't try to be one big model. It's a stack of cheap specialists that compound through the data flywheel.</text></g>
</svg>
