<svg viewBox="0 0 1320 1820" xmlns="http://www.w3.org/2000/svg" font-family="ui-sans-serif, system-ui, sans-serif">
  <title>MedLynq tech stack recommendation</title>
  <style>
    .t{fill:#1f1f1f;} .t2{fill:#555;} .t3{fill:#888;} .inv{fill:#fff;}
    .card{fill:#fff;stroke:#999;stroke-width:1.2;}
    .lane{fill:#fafafa;stroke:#d4d4d4;stroke-width:1;}
    .pick{fill:#e8f5ee;stroke:#1f8a4c;stroke-width:1.4;}
    .alt{fill:#f6f6f4;stroke:#999;stroke-width:1;stroke-dasharray:3 3;}
    .ai{fill:#fbeee8;stroke:#c96442;stroke-width:1.2;}
    .accent{fill:#c96442;} .green{fill:#1f8a4c;} .blue{fill:#2566c8;} .amber{fill:#c98a1f;}
    .title{font-size:18px;font-weight:700;}
    .lbl{font-size:12px;font-weight:700;letter-spacing:0.5px;text-transform:uppercase;fill:#555;}
    .h{font-size:13px;font-weight:600;}
    .sub{font-size:11px;}
    .tag{font-size:10px;}
    .micro{font-size:9px;}
    .big{font-size:14px;font-weight:700;}
    .pillG{fill:#1f8a4c;}
  </style>
  <rect width="1320" height="1820" fill="#fff"/>
  <text x="40" y="40" class="title t">MedLynq — technical stack</text>
  <text x="40" y="60" class="sub t2">Pick the boring tool that fits. Green = recommended. Dashed = considered alternative. Each row has a one-line reason.</text>
  <text x="40" y="100" class="lbl">1 · MedLynq Go · mobile (Android)</text>
  <g transform="translate(40,118)"><rect class="lane" width="1240" height="160" rx="8"/>
    <g transform="translate(14,14)"><rect class="pick" width="260" height="130" rx="6"/><rect class="pillG" x="14" y="14" width="50" height="16" rx="8"/><text x="39" y="25" class="micro inv" text-anchor="middle">PICK</text><text x="14" y="50" class="big t">Kotlin + Jetpack Compose</text><text x="14" y="68" class="sub t2">Native Android · modern UI toolkit</text><text x="14" y="86" class="sub t2">CameraX for capture · MLKit for OCR</text><text x="14" y="104" class="sub t2">WorkManager for offline upload retry</text><text x="14" y="120" class="sub t2">Room for local encrypted cache</text></g>
    <g transform="translate(282,14)"><rect class="alt" width="220" height="130" rx="6"/><text x="14" y="28" class="big t2">Considered: Flutter</text><text x="14" y="46" class="micro t2">Cross-platform if iOS comes</text><text x="14" y="60" class="micro t2">Skipped: camera + offline = native edge</text><text x="14" y="78" class="micro t2">Native CameraX has lower latency</text><text x="14" y="92" class="micro t2">and better encryption APIs</text><text x="14" y="116" class="micro t3">Revisit at 50k DAU.</text></g>
    <g transform="translate(510,14)"><rect class="alt" width="220" height="130" rx="6"/><text x="14" y="28" class="big t2">Considered: React Native</text><text x="14" y="46" class="micro t2">Team familiarity if web-first</text><text x="14" y="60" class="micro t2">Skipped: camera/voice perf concerns</text><text x="14" y="78" class="micro t2">and bigger APK</text></g>
    <g transform="translate(738,14)"><rect class="ai" width="488" height="130" rx="6"/><text x="14" y="28" class="h accent">Mobile-specific libraries</text><text x="14" y="46" class="sub t2">CameraX · Image capture + QR ML Kit</text><text x="14" y="62" class="sub t2">Whisper-tiny on-device or cloud STT</text><text x="14" y="78" class="sub t2">SQLCipher · encrypted local DB</text><text x="14" y="94" class="sub t2">Firebase Cloud Messaging · push</text><text x="14" y="110" class="sub t2">Auth0 / OneAuth for SSO</text><text x="14" y="124" class="sub t2">Sentry · crash reporting</text></g>
  </g>
  <text x="40" y="298" class="lbl">2 · MedLynq Pulse · web dashboard</text>
  <g transform="translate(40,316)"><rect class="lane" width="1240" height="160" rx="8"/>
    <g transform="translate(14,14)"><rect class="pick" width="260" height="130" rx="6"/><rect class="pillG" x="14" y="14" width="50" height="16" rx="8"/><text x="39" y="25" class="micro inv" text-anchor="middle">PICK</text><text x="14" y="50" class="big t">Next.js 14 (App Router)</text><text x="14" y="68" class="sub t2">TypeScript · React Server Components</text><text x="14" y="86" class="sub t2">Tailwind CSS + shadcn/ui</text><text x="14" y="104" class="sub t2">TanStack Query for server state</text><text x="14" y="120" class="sub t2">Zod for runtime validation</text></g>
    <g transform="translate(282,14)"><rect class="alt" width="220" height="130" rx="6"/><text x="14" y="28" class="big t2">Considered: Remix</text><text x="14" y="46" class="micro t2">Simpler data loading model</text><text x="14" y="60" class="micro t2">Skipped: Next ecosystem larger</text><text x="14" y="78" class="micro t2">and India hiring pool stronger</text></g>
    <g transform="translate(510,14)"><rect class="alt" width="220" height="130" rx="6"/><text x="14" y="28" class="big t2">Considered: SvelteKit</text><text x="14" y="46" class="micro t2">Smallest bundles · fast UX</text><text x="14" y="60" class="micro t2">Skipped: smaller ecosystem for charts,</text><text x="14" y="78" class="micro t2">data tables, healthcare-specific libs</text></g>
    <g transform="translate(738,14)"><rect class="ai" width="488" height="130" rx="6"/><text x="14" y="28" class="h accent">Specialised UI libraries</text><text x="14" y="46" class="sub t2">TanStack Table · big patient lists with virtual scroll</text><text x="14" y="62" class="sub t2">Recharts or Tremor · CFO dashboards</text><text x="14" y="78" class="sub t2">PDF.js · embedded document viewer</text><text x="14" y="94" class="sub t2">react-pdf-renderer · packet PDF generation in browser preview</text><text x="14" y="110" class="sub t2">Cmd K palette + Ask Lynq input via Vercel AI SDK</text><text x="14" y="124" class="sub t2">Sentry · session replay (LogRocket alt)</text></g>
  </g>
  <text x="40" y="496" class="lbl">3 · Backend services</text>
  <g transform="translate(40,514)"><rect class="lane" width="1240" height="180" rx="8"/>
    <g transform="translate(14,14)"><rect class="pick" width="260" height="150" rx="6"/><rect class="pillG" x="14" y="14" width="50" height="16" rx="8"/><text x="39" y="25" class="micro inv" text-anchor="middle">PICK</text><text x="14" y="50" class="big t">Python · FastAPI</text><text x="14" y="68" class="sub t2">For AI-heavy services (Lynq orchestrator,</text><text x="14" y="82" class="sub t2">Evidence Locator, OCR, classifier)</text><text x="14" y="100" class="sub t2">Pydantic for schema validation</text><text x="14" y="116" class="sub t2">async-first · OpenAPI auto-gen</text><text x="14" y="134" class="sub t2">Best ecosystem for ML / LLM tooling</text></g>
    <g transform="translate(282,14)"><rect class="pick" width="260" height="150" rx="6"/><rect class="pillG" x="14" y="14" width="50" height="16" rx="8"/><text x="39" y="25" class="micro inv" text-anchor="middle">PICK</text><text x="14" y="50" class="big t">Node.js · NestJS</text><text x="14" y="68" class="sub t2">For transactional services (auth, folders,</text><text x="14" y="82" class="sub t2">claims, queries, notifications, billing)</text><text x="14" y="100" class="sub t2">TypeScript end-to-end with frontend</text><text x="14" y="116" class="sub t2">DI + modules for clean separation</text><text x="14" y="134" class="sub t2">Polyglot is fine — services are gRPC/HTTP</text></g>
    <g transform="translate(550,14)"><rect class="alt" width="220" height="150" rx="6"/><text x="14" y="28" class="big t2">Considered: Django</text><text x="14" y="46" class="micro t2">Faster initial CRUD scaffold</text><text x="14" y="60" class="micro t2">Skipped: async story weaker</text><text x="14" y="78" class="micro t2">than FastAPI · admin pages are nice</text><text x="14" y="92" class="micro t2">but not load-bearing</text></g>
    <g transform="translate(778,14)"><rect class="alt" width="220" height="150" rx="6"/><text x="14" y="28" class="big t2">Considered: Go</text><text x="14" y="46" class="micro t2">Cheaper to run at scale</text><text x="14" y="60" class="micro t2">Skipped: AI ecosystem thin · slows</text><text x="14" y="78" class="micro t2">prototyping the moat features</text><text x="14" y="96" class="micro t3">Revisit for hot paths after PMF.</text></g>
    <g transform="translate(1006,14)"><rect class="ai" width="220" height="150" rx="6"/><text x="14" y="28" class="h accent">Inter-service comms</text><text x="14" y="46" class="sub t2">REST for external</text><text x="14" y="60" class="sub t2">gRPC for internal hot paths</text><text x="14" y="76" class="sub t2">Async queue (Redis/SQS)</text><text x="14" y="90" class="sub t2">for worker jobs</text><text x="14" y="108" class="sub t2">OpenAPI / Protobuf</text><text x="14" y="122" class="sub t2">contracts in monorepo</text></g>
  </g>
  <text x="40" y="714" class="lbl">4 · AI / ML layer</text>
  <g transform="translate(40,732)"><rect class="lane" width="1240" height="200" rx="8"/>
    <g transform="translate(14,14)"><rect class="pick" width="296" height="170" rx="6"/><rect class="pillG" x="14" y="14" width="50" height="16" rx="8"/><text x="39" y="25" class="micro inv" text-anchor="middle">PICK</text><text x="14" y="50" class="big t">Anthropic Claude (primary)</text><text x="14" y="68" class="sub t2">+ OpenAI as fallback / cost optimization</text><text x="14" y="86" class="sub t2">Claude Sonnet 4.6: classifier, drafter,</text><text x="14" y="100" class="sub t2">co-pilot, Ask Lynq</text><text x="14" y="116" class="sub t2">Claude Haiku 4.5 for cheap classification</text><text x="14" y="132" class="sub t2">Vision API for image classification</text><text x="14" y="150" class="sub t2">PII-scrub everything before API call</text><text x="14" y="164" class="sub t2">Multi-provider via LiteLLM</text></g>
    <g transform="translate(318,14)"><rect class="pick" width="296" height="170" rx="6"/><rect class="pillG" x="14" y="14" width="50" height="16" rx="8"/><text x="39" y="25" class="micro inv" text-anchor="middle">PICK</text><text x="14" y="50" class="big t">Fine-tuned small models (year 2)</text><text x="14" y="68" class="sub t2">Llama 3 8B fine-tuned on labelled queries</text><text x="14" y="86" class="sub t2">Self-hosted on AWS / Modal</text><text x="14" y="104" class="sub t2">Cheaper than API at our query volume</text><text x="14" y="120" class="sub t2">Replaces classifier first, drafter later</text><text x="14" y="138" class="sub t2">Eval framework: held-out test sets</text><text x="14" y="156" class="sub t2">+ A/B on 10% traffic before rollout</text></g>
    <g transform="translate(622,14)"><rect class="pick" width="296" height="170" rx="6"/><rect class="pillG" x="14" y="14" width="50" height="16" rx="8"/><text x="39" y="25" class="micro inv" text-anchor="middle">PICK</text><text x="14" y="50" class="big t">Orchestration · LangGraph</text><text x="14" y="68" class="sub t2">For multi-step agents (Packet Builder,</text><text x="14" y="86" class="sub t2">Doctor Co-pilot, Ask Lynq RAG chains)</text><text x="14" y="104" class="sub t2">Versioned prompts in code</text><text x="14" y="120" class="sub t2">Replayable runs for debugging</text><text x="14" y="138" class="sub t2">LangSmith for trace observability</text><text x="14" y="156" class="sub t2">Prefer LangGraph over LangChain v0</text></g>
    <g transform="translate(926,14)"><rect class="pick" width="300" height="170" rx="6"/><rect class="pillG" x="14" y="14" width="50" height="16" rx="8"/><text x="39" y="25" class="micro inv" text-anchor="middle">PICK</text><text x="14" y="50" class="big t">Tabular ML · XGBoost + scikit-learn</text><text x="14" y="68" class="sub t2">Risk scorer, approval predictor</text><text x="14" y="86" class="sub t2">Calibrated probabilities</text><text x="14" y="104" class="sub t2">Trained in Jupyter · served via FastAPI</text><text x="14" y="120" class="sub t2">MLflow for experiment + model registry</text><text x="14" y="138" class="sub t2">DVC for dataset versioning</text><text x="14" y="156" class="sub t2">Statistical anomaly: Prophet + ruptures</text></g>
  </g>
  <text x="40" y="952" class="lbl">5 · Data layer</text>
  <g transform="translate(40,970)"><rect class="lane" width="1240" height="180" rx="8"/>
    <g transform="translate(14,14)"><rect class="pick" width="296" height="150" rx="6"/><rect class="pillG" x="14" y="14" width="50" height="16" rx="8"/><text x="39" y="25" class="micro inv" text-anchor="middle">PICK</text><text x="14" y="50" class="big t">Postgres 16 (Supabase or self-hosted)</text><text x="14" y="68" class="sub t2">Primary OLTP store</text><text x="14" y="86" class="sub t2">pgvector extension for embeddings</text><text x="14" y="104" class="sub t2">Row-level security for multi-tenancy</text><text x="14" y="120" class="sub t2">PITR + read replica for HA</text><text x="14" y="138" class="sub t2">Avoid multiple DBs early</text></g>
    <g transform="translate(318,14)"><rect class="pick" width="296" height="150" rx="6"/><rect class="pillG" x="14" y="14" width="50" height="16" rx="8"/><text x="39" y="25" class="micro inv" text-anchor="middle">PICK</text><text x="14" y="50" class="big t">S3-compatible object storage</text><text x="14" y="68" class="sub t2">AWS S3 Mumbai or Wasabi for cheaper egress</text><text x="14" y="86" class="sub t2">SSE-KMS encryption at rest</text><text x="14" y="104" class="sub t2">Pre-signed URLs for direct upload</text><text x="14" y="120" class="sub t2">Lifecycle: hot 90d → glacier &gt;1yr</text><text x="14" y="138" class="sub t2">Original + compressed kept separately</text></g>
    <g transform="translate(622,14)"><rect class="pick" width="296" height="150" rx="6"/><rect class="pillG" x="14" y="14" width="50" height="16" rx="8"/><text x="39" y="25" class="micro inv" text-anchor="middle">PICK</text><text x="14" y="50" class="big t">Elasticsearch / OpenSearch</text><text x="14" y="68" class="sub t2">Full-text BM25 over OCR text</text><text x="14" y="86" class="sub t2">Hybrid with pgvector semantic search</text><text x="14" y="104" class="sub t2">Backs "Ask Lynq" + Evidence Locator</text><text x="14" y="120" class="sub t2">Sized: 1M docs ≈ 50GB</text><text x="14" y="138" class="sub t2">Self-host on AWS · cheap at our scale</text></g>
    <g transform="translate(926,14)"><rect class="pick" width="300" height="150" rx="6"/><rect class="pillG" x="14" y="14" width="50" height="16" rx="8"/><text x="39" y="25" class="micro inv" text-anchor="middle">PICK</text><text x="14" y="50" class="big t">Redis + SQS</text><text x="14" y="68" class="sub t2">Redis: cache, sessions, rate limits</text><text x="14" y="86" class="sub t2">SQS: durable job queue for workers</text><text x="14" y="104" class="sub t2">OCR, packet build, HIS pull,</text><text x="14" y="120" class="sub t2">portal scrape — all queued, not sync</text><text x="14" y="138" class="sub t2">Dead-letter queue for failed jobs</text></g>
  </g>
  <text x="40" y="1170" class="lbl">6 · Infrastructure + DevOps</text>
  <g transform="translate(40,1188)"><rect class="lane" width="1240" height="180" rx="8"/>
    <g transform="translate(14,14)"><rect class="pick" width="296" height="150" rx="6"/><rect class="pillG" x="14" y="14" width="50" height="16" rx="8"/><text x="39" y="25" class="micro inv" text-anchor="middle">PICK</text><text x="14" y="50" class="big t">AWS Mumbai (ap-south-1)</text><text x="14" y="68" class="sub t2">Data residency required by DPDP</text><text x="14" y="86" class="sub t2">EKS for services · Fargate for jobs</text><text x="14" y="104" class="sub t2">RDS Postgres · S3 · Elasticache · SQS</text><text x="14" y="120" class="sub t2">CloudFront + WAF · Route53</text><text x="14" y="138" class="sub t2">Reserved instances after PMF</text></g>
    <g transform="translate(318,14)"><rect class="pick" width="296" height="150" rx="6"/><rect class="pillG" x="14" y="14" width="50" height="16" rx="8"/><text x="39" y="25" class="micro inv" text-anchor="middle">PICK</text><text x="14" y="50" class="big t">Terraform + ArgoCD</text><text x="14" y="68" class="sub t2">Infra as code · environments parity</text><text x="14" y="86" class="sub t2">GitOps deploy via ArgoCD</text><text x="14" y="104" class="sub t2">Helm charts per service</text><text x="14" y="120" class="sub t2">Sealed-secrets for KMS-encrypted vars</text><text x="14" y="138" class="sub t2">Atlas or Liquibase for DB migrations</text></g>
    <g transform="translate(622,14)"><rect class="pick" width="296" height="150" rx="6"/><rect class="pillG" x="14" y="14" width="50" height="16" rx="8"/><text x="39" y="25" class="micro inv" text-anchor="middle">PICK</text><text x="14" y="50" class="big t">GitHub + GitHub Actions</text><text x="14" y="68" class="sub t2">Monorepo with Turborepo</text><text x="14" y="86" class="sub t2">CI: lint · test · build · scan</text><text x="14" y="104" class="sub t2">CD: ArgoCD watches main branch</text><text x="14" y="120" class="sub t2">Trivy + Snyk for dependency scanning</text><text x="14" y="138" class="sub t2">Feature flags via Unleash / LaunchDarkly</text></g>
    <g transform="translate(926,14)"><rect class="pick" width="300" height="150" rx="6"/><rect class="pillG" x="14" y="14" width="50" height="16" rx="8"/><text x="39" y="25" class="micro inv" text-anchor="middle">PICK</text><text x="14" y="50" class="big t">Observability</text><text x="14" y="68" class="sub t2">Grafana Cloud or Datadog</text><text x="14" y="86" class="sub t2">OpenTelemetry traces from all services</text><text x="14" y="104" class="sub t2">Sentry for app errors + session replay</text><text x="14" y="120" class="sub t2">LangSmith for LLM call traces</text><text x="14" y="138" class="sub t2">PagerDuty for on-call</text></g>
  </g>
  <text x="40" y="1388" class="lbl">7 · Security + DPDP / FHIR compliance</text>
  <g transform="translate(40,1406)"><rect class="lane" width="1240" height="170" rx="8"/>
    <g transform="translate(14,14)"><rect class="card" width="394" height="140" rx="6"/><text x="14" y="22" class="h t">Auth + access control</text><text x="14" y="40" class="sub t2">• Auth0 or Clerk (or self-host Ory) for user identity</text><text x="14" y="56" class="sub t2">• Role-based + row-level security in Postgres</text><text x="14" y="72" class="sub t2">• MFA mandatory for clinical roles</text><text x="14" y="88" class="sub t2">• ABHA integration for patient identity</text><text x="14" y="104" class="sub t2">• Signed share links · time-boxed JWT</text><text x="14" y="120" class="sub t2">• Session inactivity timeout per role</text></g>
    <g transform="translate(420,14)"><rect class="card" width="394" height="140" rx="6"/><text x="14" y="22" class="h t">DPDP compliance</text><text x="14" y="40" class="sub t2">• All data resident in India (ap-south-1)</text><text x="14" y="56" class="sub t2">• PII strip pipeline before any LLM call</text><text x="14" y="72" class="sub t2">• Aadhaar stored only as hash</text><text x="14" y="88" class="sub t2">• Per-tenant encryption keys (KMS)</text><text x="14" y="104" class="sub t2">• Consent ledger before any data share</text><text x="14" y="120" class="sub t2">• Per-hospital DPA on file</text></g>
    <g transform="translate(826,14)"><rect class="card" width="400" height="140" rx="6"/><text x="14" y="22" class="h t">FHIR + NHCX readiness</text><text x="14" y="40" class="sub t2">• HAPI FHIR validator in build pipeline</text><text x="14" y="56" class="sub t2">• ICD-10 + HBP + IH code masters synced</text><text x="14" y="72" class="sub t2">• AuditEvent emitted for every action</text><text x="14" y="88" class="sub t2">• Apply for NHCX sandbox by Month 3</text><text x="14" y="104" class="sub t2">• ISO 27001 readiness by Year 2</text><text x="14" y="120" class="sub t2">• SOC 2 Type II target Year 3</text></g>
  </g>
  <text x="40" y="1596" class="lbl">8 · Estimated monthly run cost (year 1 · 10 hospitals · 50k claims/mo)</text>
  <g transform="translate(40,1614)"><rect class="lane" width="1240" height="120" rx="8"/>
    <g transform="translate(14,14)"><rect class="card" width="232" height="92" rx="6"/><text x="14" y="22" class="h t">Infra (AWS)</text><text x="14" y="40" class="sub t2">EKS + RDS + S3 + ES</text><text x="14" y="56" class="sub t2">+ Redis + SQS + WAF</text><text x="14" y="76" class="big green">₹ 80 k – 1.2 L</text></g>
    <g transform="translate(254,14)"><rect class="card" width="232" height="92" rx="6"/><text x="14" y="22" class="h t">LLM API spend</text><text x="14" y="40" class="sub t2">Claude/OpenAI · classifier +</text><text x="14" y="56" class="sub t2">drafter + co-pilot</text><text x="14" y="76" class="big green">₹ 50 k – 1.5 L</text></g>
    <g transform="translate(494,14)"><rect class="card" width="232" height="92" rx="6"/><text x="14" y="22" class="h t">Observability + tools</text><text x="14" y="40" class="sub t2">Sentry · Datadog/Grafana</text><text x="14" y="56" class="sub t2">+ LangSmith + GitHub</text><text x="14" y="76" class="big green">₹ 30 k – 50 k</text></g>
    <g transform="translate(734,14)"><rect class="card" width="232" height="92" rx="6"/><text x="14" y="22" class="h t">SaaS dependencies</text><text x="14" y="40" class="sub t2">Auth0 · SendGrid · MSG91</text><text x="14" y="56" class="sub t2">FCM · Cloudflare</text><text x="14" y="76" class="big green">₹ 25 k – 50 k</text></g>
    <g transform="translate(974,14)"><rect class="card" width="252" height="92" rx="6"/><text x="14" y="22" class="h t">Total</text><text x="14" y="40" class="sub t2">Year 1 monthly burn</text><text x="14" y="56" class="sub t2">excluding team</text><text x="14" y="76" class="big accent">₹ 1.9 L – 3.7 L</text></g>
  </g>
  <text x="40" y="1762" class="lbl">Reading guide</text>
  <g transform="translate(40,1776)"><rect width="1240" height="36" rx="6" fill="#fff" stroke="#d4d4d4"/><text x="14" y="22" class="sub t2">Boring stack on purpose. No experimental choices on critical paths. Every component has a healthy hiring pool in India. Migration cost low for first 12 months — easy to swap pieces.</text></g>
</svg>
