<svg viewBox="0 0 1320 3060" xmlns="http://www.w3.org/2000/svg" font-family="ui-sans-serif, system-ui, sans-serif">
  <title>MedLynq — Full Vision v3 (WhatsApp removed, v2 modules folded in, twelve new concepts added)</title>
  <desc>End-to-end vision for MedLynq Technologies. Mobile app MedLynq Go captures clinical evidence; AI assistant Lynq processes and intelligence-scores it; web dashboard MedLynq Pulse surfaces it to Nurse, Doctor, TPA clerk, CFO, Insurer-side viewer and Patient. Covers pre-authorization and claims workflows, FHIR/NHCX bridges, data flywheel and outcomes.</desc>
  <style>
    .t{fill:#1f1f1f;} .t2{fill:#555;} .t3{fill:#888;}
    .inv{fill:#fff;}
    .card{fill:#fff;stroke:#d4d4d4;stroke-width:1.2;}
    .soft{fill:#f6f6f4;stroke:#d4d4d4;stroke-width:1;}
    .accent{fill:#c96442;}
    .accentSoft{fill:#f6f6f4;stroke:#c96442;stroke-width:1.6;}
    .accentFill{fill:#fbeee8;stroke:#c96442;stroke-width:1.4;}
    .newFill{fill:#fbeee8;stroke:#c96442;stroke-width:2;}
    .lynq{fill:#fdf6f2;stroke:#c96442;stroke-width:1;}
    .red{fill:#c43d3d;} .redSoft{fill:#fbeaea;stroke:#c43d3d;stroke-width:1.2;}
    .green{fill:#1f8a4c;} .greenSoft{fill:#e8f5ee;stroke:#1f8a4c;stroke-width:1.2;}
    .blue{fill:#2566c8;} .blueSoft{fill:#e8eefb;stroke:#2566c8;stroke-width:1.2;}
    .line{stroke:#888;stroke-width:1.4;fill:none;}
    .lineA{stroke:#c96442;stroke-width:1.8;fill:none;}
    .dash{stroke-dasharray:5 4;}
    .title{font-size:18px;font-weight:700;}
    .section{font-size:12px;font-weight:700;letter-spacing:0.6px;text-transform:uppercase;}
    .h{font-size:13px;font-weight:600;}
    .sub{font-size:11px;}
    .tag{font-size:10px;}
    .badge{font-size:9px;font-weight:700;fill:#c96442;}
    .big{font-size:22px;font-weight:700;}
  </style>
  <defs>
    <marker id="arr" viewBox="0 0 10 10" refX="8" refY="5" markerWidth="6" markerHeight="6" orient="auto-start-reverse"><path d="M0,0 L10,5 L0,10 z" fill="#c96442"/></marker>
    <marker id="arrK" viewBox="0 0 10 10" refX="8" refY="5" markerWidth="6" markerHeight="6" orient="auto-start-reverse"><path d="M0,0 L10,5 L0,10 z" fill="#888"/></marker>
    <marker id="arrG" viewBox="0 0 10 10" refX="8" refY="5" markerWidth="6" markerHeight="6" orient="auto-start-reverse"><path d="M0,0 L10,5 L0,10 z" fill="#1f8a4c"/></marker>
  </defs>
  <rect width="1320" height="3060" fill="#ffffff"/>

  <text x="40" y="40" class="title t">MedLynq — Full Vision v3</text>
  <text x="40" y="60" class="sub t2">One platform spanning capture · pre-auth · claims · query resolution · CFO intelligence · network insights. Built on the data flywheel only the first mover can have.</text>

  <g transform="translate(820,28)">
    <rect class="soft" width="480" height="44" rx="6"/>
    <text x="14" y="20" class="tag t2"><tspan class="h t">Company:</tspan> MedLynq Technologies</text>
    <text x="14" y="36" class="tag t2"><tspan class="h t">Dashboard:</tspan> Pulse <tspan class="t3"> · </tspan><tspan class="h t">Mobile:</tspan> Go <tspan class="t3"> · </tspan><tspan class="h t">AI:</tspan> Lynq</text>
  </g>

  <text x="40" y="100" class="section t2">1 · Capture lanes — three channels, one folder</text>
  <g transform="translate(40,118)">
    <rect class="accentFill" width="400" height="220" rx="12"/>
    <rect class="accent" width="78" height="22" rx="11" x="14" y="14"/>
    <text x="53" y="29" class="tag inv h" text-anchor="middle">PRIMARY</text>
    <text x="104" y="30" class="h accent">MedLynq Go (Android)</text>
    <text x="14" y="56" class="sub t2">Clinical capture standard. No gallery save. DPDP-safe.</text>
    <g transform="translate(14,68)"><rect class="card" width="180" height="58" rx="6"/><text x="10" y="20" class="sub h t">QR → MRN at capture</text><text x="10" y="36" class="tag t2">Patient bound before shutter</text><text x="10" y="50" class="tag t2">Geotag · OT verification ✦K</text></g>
    <g transform="translate(206,68)"><rect class="card" width="180" height="58" rx="6"/><text x="10" y="20" class="sub h t">Photo + handwriting</text><text x="10" y="36" class="tag t2">Doctor's scrawl → AI sheet</text><text x="10" y="50" class="tag t2">Encrypted offline queue</text></g>
    <g transform="translate(14,134)"><rect class="newFill" width="180" height="74" rx="6"/><text x="10" y="20" class="sub h t">Voice notes ✦A</text><text x="10" y="36" class="tag t2">Doctor dictates in OPD/ward</text><text x="10" y="50" class="tag t2">STT → Lynq case sheet</text><text x="10" y="64" class="tag t2">Hands-free during rounds</text></g>
    <g transform="translate(206,134)"><rect class="newFill" width="180" height="74" rx="6"/><text x="10" y="20" class="sub h t">Patient consent ✦D</text><text x="10" y="36" class="tag t2">e-Sign at QR scan</text><text x="10" y="50" class="tag t2">DPDP ledger entry</text><text x="10" y="64" class="tag t2">Enables network sharing</text></g>
  </g>

  <g transform="translate(460,118)">
    <rect class="soft" width="400" height="220" rx="12"/>
    <rect class="card" width="78" height="22" rx="11" x="14" y="14"/>
    <text x="53" y="29" class="tag h t" text-anchor="middle">SYSTEM</text>
    <text x="104" y="30" class="h t">HIS · Lab · Pharmacy · PACS</text>
    <text x="14" y="56" class="sub t2">Auto-pulls existing artefacts from hospital systems.</text>
    <g transform="translate(14,68)"><rect class="card" width="180" height="58" rx="6"/><text x="10" y="20" class="sub h t">Practo · Insta · eHospital</text><text x="10" y="36" class="tag t2">Vitals · discharge · bill</text><text x="10" y="50" class="tag t2">UTR · clinical history</text></g>
    <g transform="translate(206,68)"><rect class="card" width="180" height="58" rx="6"/><text x="10" y="20" class="sub h t">PACS / imaging</text><text x="10" y="36" class="tag t2">HPE · X-ray · CT · MRI</text><text x="10" y="50" class="tag t2">Auto-dedupe into folder</text></g>
    <g transform="translate(14,134)"><rect class="newFill" width="180" height="74" rx="6"/><text x="10" y="20" class="sub h t">Pharmacy + barcode ✦F</text><text x="10" y="36" class="tag t2">Drug barcode scan</text><text x="10" y="50" class="tag t2">Chemo cycle records</text><text x="10" y="64" class="tag t2">Plugs oncology query hole</text></g>
    <g transform="translate(206,134)"><rect class="card" width="180" height="74" rx="6"/><text x="10" y="20" class="sub h t">Scheme portal sync</text><text x="10" y="36" class="tag t2">PMJAY · CGHS · ESI · SHA</text><text x="10" y="50" class="tag t2">Chrome bridge until NHCX</text><text x="10" y="64" class="tag t2">Pulls query text + status</text></g>
  </g>

  <g transform="translate(880,118)">
    <rect class="accentFill" width="400" height="220" rx="12"/>
    <rect class="accent" width="120" height="22" rx="11" x="14" y="14"/>
    <text x="74" y="29" class="tag inv h" text-anchor="middle">NEW · UPSTREAM</text>
    <text x="146" y="30" class="h accent">Doctor co-pilot (Lynq) ✦C</text>
    <text x="14" y="56" class="sub t2">Real-time during OPD/IPD — prevents missing-doc queries at source.</text>
    <g transform="translate(14,68)"><rect class="card" width="180" height="58" rx="6"/><text x="10" y="20" class="sub h t">Chief complaint → likely Dx</text><text x="10" y="36" class="tag t2">Suggested ICD codes</text><text x="10" y="50" class="tag t2">History-aware</text></g>
    <g transform="translate(206,68)"><rect class="card" width="180" height="58" rx="6"/><text x="10" y="20" class="sub h t">"Capture this now"</text><text x="10" y="36" class="tag t2">Required-doc list per scheme</text><text x="10" y="50" class="tag t2">Nudges nurse / doctor</text></g>
    <g transform="translate(14,134)"><rect class="card" width="180" height="74" rx="6"/><text x="10" y="20" class="sub h t">Empanelment intel ✦E</text><text x="10" y="36" class="tag t2">NABH · scheme renewal date</text><text x="10" y="50" class="tag t2">Blocks claim if lapsed</text><text x="10" y="64" class="tag t2">No more silent rejections</text></g>
    <g transform="translate(206,134)"><rect class="card" width="180" height="74" rx="6"/><text x="10" y="20" class="sub h t">Treatment plan draft</text><text x="10" y="36" class="tag t2">Reasoning + sources</text><text x="10" y="50" class="tag t2">Doctor edits / signs</text><text x="10" y="64" class="tag t2">Locks evidence early</text></g>
  </g>

  <path class="lineA" d="M240,338 V378" marker-end="url(#arr)"/>
  <path class="line" d="M660,338 V378" marker-end="url(#arrK)"/>
  <path class="lineA" d="M1080,338 V378" marker-end="url(#arr)"/>

  <text x="40" y="400" class="section t2">2 · Two parallel workflows on the same folder</text>
  <g transform="translate(40,418)">
    <rect class="newFill" width="610" height="100" rx="12"/>
    <text x="14" y="24" class="h t">Pre-authorization (cashless) ✦B</text>
    <text x="14" y="42" class="sub t2">Before admission · request scheme approval · MedLynq drafts pre-auth packet</text>
    <text x="14" y="58" class="sub t2">Auto-fills cost estimate + procedure codes · attaches consent + ID + referral</text>
    <text x="14" y="74" class="sub t2">Same Lynq brain · doubles addressable workflow per claim · locks hospital in earlier</text>
    <text x="14" y="92" class="tag t2">Status: requested · approved · enhanced · rejected (with reason)</text>
  </g>
  <g transform="translate(670,418)">
    <rect class="soft" width="610" height="100" rx="12"/>
    <text x="14" y="24" class="h t">Post-claim workflow (existing)</text>
    <text x="14" y="42" class="sub t2">After discharge · submission · query resolution · approval · payment</text>
    <text x="14" y="58" class="sub t2">Already-on-file evidence reused from pre-auth — no double capture</text>
    <text x="14" y="74" class="sub t2">Same submission rails (NHCX / portal) · same Pulse dashboard</text>
    <text x="14" y="92" class="tag t2">Status: submitted · query · responded · approved · paid</text>
  </g>
  <path class="line" d="M660,518 V548" marker-end="url(#arrK)"/>

  <text x="40" y="540" class="section t2">3 · Patient folder &amp; document repository</text>
  <g transform="translate(40,558)">
    <rect class="soft" width="1240" height="120" rx="10"/>
    <g transform="translate(14,14)"><rect class="card" width="380" height="92" rx="6"/><text x="12" y="22" class="h t">Patient folder = PatientName_MRN</text><text x="12" y="40" class="tag t2">Single source of truth · server-side dedupe</text><text x="12" y="54" class="tag t2">Encrypted at rest · role-scoped access</text><text x="12" y="68" class="tag t2">Same folder serves pre-auth + claim</text><text x="12" y="82" class="tag t2">Per-artefact audit log entry</text></g>
    <g transform="translate(412,14)"><rect class="card" width="380" height="92" rx="6"/><text x="12" y="22" class="h t">Document repository</text><text x="12" y="40" class="tag t2">HPE · OT notes · post-op photos · discharge</text><text x="12" y="54" class="tag t2">Bills · referral · consent · imaging · lab</text><text x="12" y="68" class="tag t2">Chemo cycles · drug barcodes · empanelment proof</text><text x="12" y="82" class="tag t2">Stores original + compressed + renamed</text></g>
    <g transform="translate(808,14)"><rect class="newFill" width="418" height="92" rx="6"/><text x="12" y="22" class="h t">Clinical Evidence Index <tspan class="badge">NEW · v2</tspan></text><text x="12" y="40" class="tag t2">Per-doc: type · MRN · procedure · date · page OCR</text><text x="12" y="54" class="tag t2">"Where is the HPE report?" → file path + pages</text><text x="12" y="68" class="tag t2">Powers Evidence Locator + NL Q&amp;A search</text><text x="12" y="82" class="tag t2">Reusable across queries — no double-asking</text></g>
  </g>

  <path class="line" d="M660,678 V710" marker-end="url(#arrK)"/>

  <text x="40" y="698" class="section t2">4 · Lynq AI brain — extract &amp; normalize</text>
  <g transform="translate(40,710)">
    <rect class="lynq" width="1240" height="220" rx="12"/>
    <text x="16" y="22" class="h accent">Lynq — central AI assistant</text>
    <text x="16" y="38" class="tag t2">Every artefact flows through this brain. Every output becomes training data.</text>
    <g transform="translate(14,52)"><rect class="card" width="194" height="80" rx="6"/><text x="10" y="20" class="sub h t">Handwriting → sheet</text><text x="10" y="36" class="tag t2">Reads doctor's scrawl</text><text x="10" y="50" class="tag t2">Dx · ICD · Rx · meds</text><text x="10" y="64" class="tag t2">Reasoning + confidence</text></g>
    <g transform="translate(216,52)"><rect class="card" width="194" height="80" rx="6"/><text x="10" y="20" class="sub h t">Voice → sheet ✦A</text><text x="10" y="36" class="tag t2">STT in Hindi/English/regional</text><text x="10" y="50" class="tag t2">Same Dx · ICD · Rx output</text><text x="10" y="64" class="tag t2">Hands-free ward rounds</text></g>
    <g transform="translate(418,52)"><rect class="card" width="194" height="80" rx="6"/><text x="10" y="20" class="sub h t">File renamer</text><text x="10" y="36" class="tag t2">e.g. POSTOP_WOUND_01.jpg</text><text x="10" y="50" class="tag t2">Consistent schema</text><text x="10" y="64" class="tag t2">Original kept for audit</text></g>
    <g transform="translate(620,52)"><rect class="card" width="194" height="80" rx="6"/><text x="10" y="20" class="sub h t">OCR &amp; clinical structuring</text><text x="10" y="36" class="tag t2">PDFs + JPEGs → text</text><text x="10" y="50" class="tag t2">Page-level granularity</text><text x="10" y="64" class="tag t2">Feeds Evidence Index</text></g>
    <g transform="translate(822,52)"><rect class="card" width="194" height="80" rx="6"/><text x="10" y="20" class="sub h t">Quality-preserving compress</text><text x="10" y="36" class="tag t2">Visually lossless</text><text x="10" y="50" class="tag t2">~70% storage saved</text><text x="10" y="64" class="tag t2">Both versions retained</text></g>
    <g transform="translate(1024,52)"><rect class="card" width="202" height="80" rx="6"/><text x="10" y="20" class="sub h t">Patient matcher</text><text x="10" y="36" class="tag t2">MRN · name · DOB fuzzy</text><text x="10" y="50" class="tag t2">Dedupe with suffix</text><text x="10" y="64" class="tag t2">Manual link fallback</text></g>
    <g transform="translate(14,140)"><rect class="card" width="296" height="72" rx="6"/><text x="10" y="20" class="sub h t">Doc checker (procedure × scheme matrix)</text><text x="10" y="36" class="tag t2">Per-doc presence flag · low-confidence flag</text><text x="10" y="50" class="tag t2">Source: MedLynq Go · HIS · Pharmacy · Voice</text><text x="10" y="64" class="tag t2">Drives "request from ward" workflow</text></g>
    <g transform="translate(318,140)"><rect class="newFill" width="296" height="72" rx="6"/><text x="10" y="20" class="sub h t">Missing-document detection <tspan class="badge">NEW · v2</tspan></text><text x="10" y="36" class="tag t2">Predicts what insurer will ask</text><text x="10" y="50" class="tag t2">"HPE report #1 missing for this procedure"</text><text x="10" y="64" class="tag t2">Cuts ping-pong at the source · pre-attaches</text></g>
    <g transform="translate(622,140)"><rect class="card" width="296" height="72" rx="6"/><text x="10" y="20" class="sub h t">Empanelment intelligence ✦E</text><text x="10" y="36" class="tag t2">Tracks scheme empanelment · NABH</text><text x="10" y="50" class="tag t2">Renewal alerts · auto-block expired</text><text x="10" y="64" class="tag t2">Prevents silent rejections</text></g>
    <g transform="translate(926,140)"><rect class="newFill" width="300" height="72" rx="6"/><text x="10" y="20" class="sub h t">NHCX FHIR R4 mapper</text><text x="10" y="36" class="tag t2">ICD → HBP → FHIR Claim resource</text><text x="10" y="50" class="tag t2">DocumentReference bundle · AuditEvent</text><text x="10" y="64" class="tag t2">Status webhook · CommunicationRequest</text></g>
  </g>

  <path class="line" d="M660,930 V960" marker-end="url(#arrK)"/>

  <text x="40" y="950" class="section t2">5 · Lynq AI brain — prevent &amp; resolve queries</text>
  <g transform="translate(40,962)">
    <rect class="lynq" width="1240" height="320" rx="12"/>
    <text x="16" y="22" class="h accent">Intelligence layer — prevention upstream, resolution downstream</text>
    <g transform="translate(14,38)"><rect class="card" width="194" height="84" rx="6"/><text x="10" y="20" class="sub h t">Pre-submission risk scorer</text><text x="10" y="36" class="tag t2">"67% query probability"</text><text x="10" y="50" class="tag t2">Top reason · suggested fix</text><text x="10" y="64" class="tag t2">Block submit if &gt; threshold</text><text x="10" y="78" class="tag t2">Trained on 1k → 100k cases</text></g>
    <g transform="translate(216,38)"><rect class="card" width="194" height="84" rx="6"/><text x="10" y="20" class="sub h t">Approval probability predictor</text><text x="10" y="36" class="tag t2">Expected ₹ vs claimed ₹</text><text x="10" y="50" class="tag t2">Adj-factor anomaly alert</text><text x="10" y="64" class="tag t2">TAT forecast (days)</text><text x="10" y="78" class="tag t2">Non-binding indicator</text></g>
    <g transform="translate(418,38)"><rect class="card" width="194" height="84" rx="6"/><text x="10" y="20" class="sub h t">Query classifier (10 types)</text><text x="10" y="36" class="tag t2">missing_doc · code_mismatch</text><text x="10" y="50" class="tag t2">clinical_elab · date_inconsist</text><text x="10" y="64" class="tag t2">clubbing · geotag · pricing</text><text x="10" y="78" class="tag t2">eligibility · duplicate · quality</text></g>
    <g transform="translate(620,38)"><rect class="newFill" width="194" height="84" rx="6"/><text x="10" y="20" class="sub h t">Document Evidence Locator <tspan class="badge">NEW · v2</tspan></text><text x="10" y="36" class="tag t2">"Is the requested doc on file?"</text><text x="10" y="50" class="tag t2">Returns file path + page nos</text><text x="10" y="64" class="tag t2">Solves re-asked-docs problem</text><text x="10" y="78" class="tag t2">The retrieval wedge</text></g>
    <g transform="translate(822,38)"><rect class="card" width="194" height="84" rx="6"/><text x="10" y="20" class="sub h t">Response drafter</text><text x="10" y="36" class="tag t2">Template per query type</text><text x="10" y="50" class="tag t2">Pre-attached evidence</text><text x="10" y="64" class="tag t2">Doctor-signable letter</text><text x="10" y="78" class="tag t2">25 min → 45 sec</text></g>
    <g transform="translate(1024,38)"><rect class="newFill" width="202" height="84" rx="6"/><text x="10" y="20" class="sub h t">Query Packet Builder <tspan class="badge">NEW · v2</tspan></text><text x="10" y="36" class="tag t2">Locate · merge PDFs · cover</text><text x="10" y="50" class="tag t2">Query_Response_XXXX.pdf</text><text x="10" y="64" class="tag t2">Includes query text + index</text><text x="10" y="78" class="tag t2">Upload-ready packet</text></g>
    <g transform="translate(14,132)"><rect class="newFill" width="296" height="84" rx="6"/><text x="10" y="20" class="sub h t">Ask Lynq — NL search ✦I</text><text x="10" y="36" class="tag t2">"What was the OT date?"</text><text x="10" y="50" class="tag t2">"Find the consent form"</text><text x="10" y="64" class="tag t2">Answers from Evidence Index</text><text x="10" y="78" class="tag t2">Available in Pulse + Go</text></g>
    <g transform="translate(318,132)"><rect class="card" width="296" height="84" rx="6"/><text x="10" y="20" class="sub h t">Network patterns (cross-hospital)</text><text x="10" y="36" class="tag t2">"SHA UP applies 50% adj on SG075B</text><text x="10" y="50" class="tag t2">in 78% of cases" — invisible to one</text><text x="10" y="64" class="tag t2">hospital alone</text><text x="10" y="78" class="tag t2">Visible only at network scale</text></g>
    <g transform="translate(622,132)"><rect class="card" width="296" height="84" rx="6"/><text x="10" y="20" class="sub h t">Denial pattern alerts</text><text x="10" y="36" class="tag t2">"CPD-Trust: 12 chemo queries in 7d</text><text x="10" y="50" class="tag t2">across 4 hospitals"</text><text x="10" y="64" class="tag t2">Triggers pre-attach action</text><text x="10" y="78" class="tag t2">Weekly anomaly scan</text></g>
    <g transform="translate(926,132)"><rect class="card" width="300" height="84" rx="6"/><text x="10" y="20" class="sub h t">Benchmarking (anonymous)</text><text x="10" y="36" class="tag t2">Doctor · dept · hospital</text><text x="10" y="50" class="tag t2">Rejection % · TAT · ₹ unlocked</text><text x="10" y="64" class="tag t2">CFO add-on revenue stream</text><text x="10" y="78" class="tag t2">Peer-compare report</text></g>
    <g transform="translate(14,226)"><rect class="card" width="608" height="80" rx="6"/><text x="10" y="20" class="sub h t">Audit trail / FHIR AuditEvent <tspan class="badge">v2</tspan></text><text x="10" y="36" class="tag t2">Every upload · AI step · HIS pull · query · response logged with actor + timestamp</text><text x="10" y="50" class="tag t2">Maps directly to FHIR AuditEvent for NHCX · powers compliance + legal exports</text><text x="10" y="64" class="tag t2">Visible per case on Pulse timeline · exportable to PDF/CSV</text></g>
    <g transform="translate(630,226)"><rect class="newFill" width="596" height="80" rx="6"/><text x="10" y="20" class="sub h t">Auditor share link ✦K</text><text x="10" y="36" class="tag t2">When insurer audits a claim — generate watermarked, time-boxed, read-only folder URL</text><text x="10" y="50" class="tag t2">No PII exposure beyond what's necessary · download disabled</text><text x="10" y="64" class="tag t2">Required for compliance sales motion · proves you have nothing to hide</text></g>
  </g>

  <path class="line" d="M660,1282 V1312" marker-end="url(#arrK)"/>

  <text x="40" y="1302" class="section t2">6 · Bridges — the only middleware sitting between hospital, insurer and finance</text>
  <g transform="translate(40,1314)">
    <rect class="soft" width="1240" height="140" rx="10"/>
    <g transform="translate(14,14)"><rect class="card" width="296" height="114" rx="6"/><text x="12" y="22" class="h t">HIS Connector Marketplace</text><text x="12" y="40" class="tag t2">Practo · Insta · eHospital · custom</text><text x="12" y="54" class="tag t2">White-label SDK for HIS vendors</text><text x="12" y="68" class="tag t2">Pulls demographics · clinical · billing</text><text x="12" y="82" class="tag h accent">Revenue: ₹20–30 / claim API license</text><text x="12" y="98" class="tag t2">Switching cost = months of migration</text></g>
    <g transform="translate(318,14)"><rect class="accentFill" width="296" height="114" rx="6"/><text x="12" y="22" class="h t">NHCX FHIR R4 Middleware</text><text x="12" y="40" class="tag t2">Auto-format Claim resource bundle</text><text x="12" y="54" class="tag t2">CommunicationRequest / Communication</text><text x="12" y="68" class="tag t2">DocumentReference · AuditEvent</text><text x="12" y="82" class="tag h accent">Revenue: ₹50–150 / claim post-mandate</text><text x="12" y="98" class="tag t2">2-year edge case knowledge moat</text></g>
    <g transform="translate(622,14)"><rect class="newFill" width="296" height="114" rx="6"/><text x="12" y="22" class="h t">ERP / Tally / accounting sync ✦J</text><text x="12" y="40" class="tag t2">Push UTR to hospital ledger</text><text x="12" y="54" class="tag t2">Bidirectional invoice mapping</text><text x="12" y="68" class="tag t2">TDS reconciliation auto-posted</text><text x="12" y="82" class="tag t2">Removes manual finance step</text><text x="12" y="98" class="tag t2">Locks CFO + finance team in</text></g>
    <g transform="translate(926,14)"><rect class="card" width="300" height="114" rx="6"/><text x="12" y="22" class="h t">Pharmacy · PACS · Lab</text><text x="12" y="40" class="tag t2">Drug barcode webhook ✦F</text><text x="12" y="54" class="tag t2">DICOM auto-attach</text><text x="12" y="68" class="tag t2">HL7 lab result pull</text><text x="12" y="82" class="tag t2">Closes oncology + radiology gaps</text><text x="12" y="98" class="tag t2">Per-vertical claim coverage</text></g>
  </g>

  <path class="line" d="M660,1454 V1484" marker-end="url(#arrK)"/>

  <text x="40" y="1474" class="section t2">7 · Submission &amp; status tracking</text>
  <g transform="translate(40,1486)">
    <rect class="soft" width="1240" height="100" rx="10"/>
    <g transform="translate(14,14)"><rect class="card" width="296" height="72" rx="6"/><text x="12" y="22" class="h t">NHCX submission (target state)</text><text x="12" y="40" class="tag t2">FHIR-formatted claim bundle</text><text x="12" y="54" class="tag t2">Per-claim transaction fee</text></g>
    <g transform="translate(318,14)"><rect class="card" width="296" height="72" rx="6"/><text x="12" y="22" class="h t">Scheme-portal submission (today)</text><text x="12" y="40" class="tag t2">PMJAY · CGHS · ESI · Railway · ECHS · SHA</text><text x="12" y="54" class="tag t2">Auto-prep upload zip + cover</text></g>
    <g transform="translate(622,14)"><rect class="card" width="296" height="72" rx="6"/><text x="12" y="22" class="h t">Status webhook / poll</text><text x="12" y="40" class="tag t2">Submitted · pending · query · approved · paid</text><text x="12" y="54" class="tag t2">Updates Pulse timeline + alerts</text></g>
    <g transform="translate(926,14)"><rect class="newFill" width="300" height="72" rx="6"/><text x="12" y="22" class="h t">UTR reconciliation <tspan class="badge">v2</tspan></text><text x="12" y="40" class="tag t2">Payment · UTR · date · amount</text><text x="12" y="54" class="tag t2">Auto-posted to ERP / Tally</text></g>
  </g>

  <text x="40" y="1620" class="section t2">8 · Query loop (5 steps) — when an insurer raises a query</text>
  <g transform="translate(40,1632)">
    <rect class="lynq" width="1240" height="130" rx="10"/>
    <g transform="translate(14,16)"><rect class="card" width="220" height="98" rx="6"/><text x="12" y="22" class="h t">1 · Query arrives</text><text x="12" y="40" class="tag t2">Pulled from portal or NHCX</text><text x="12" y="54" class="tag t2">CommunicationRequest event</text><text x="12" y="68" class="tag t2">Raw query text captured</text><text x="12" y="82" class="tag t2">Aging clock starts</text></g>
    <g transform="translate(244,16)"><rect class="card" width="220" height="98" rx="6"/><text x="12" y="22" class="h t">2 · Classify (10 types)</text><text x="12" y="40" class="tag t2">missing_doc · code_mismatch</text><text x="12" y="54" class="tag t2">clinical_elab · clubbing · etc.</text><text x="12" y="68" class="tag t2">Confidence + routing rule</text><text x="12" y="82" class="tag t2">Triages to right action</text></g>
    <g transform="translate(474,16)"><rect class="newFill" width="220" height="98" rx="6"/><text x="12" y="22" class="h t">3 · Evidence Locator <tspan class="badge">NEW</tspan></text><text x="12" y="40" class="tag t2">Already on file?</text><text x="12" y="54" class="tag t2">Returns file path + pages</text><text x="12" y="68" class="tag t2">If missing → ward request</text><text x="12" y="82" class="tag t2">Eliminates re-asks</text></g>
    <g transform="translate(704,16)"><rect class="card" width="220" height="98" rx="6"/><text x="12" y="22" class="h t">4 · Draft response</text><text x="12" y="40" class="tag t2">Template per query type</text><text x="12" y="54" class="tag t2">Pre-attached evidence</text><text x="12" y="68" class="tag t2">Doctor-signable letter</text><text x="12" y="82" class="tag t2">Editable in Pulse</text></g>
    <g transform="translate(934,16)"><rect class="newFill" width="292" height="98" rx="6"/><text x="12" y="22" class="h t">5 · Packet Builder + resubmit <tspan class="badge">NEW</tspan></text><text x="12" y="40" class="tag t2">Merge PDFs · cover · Query_Response_XXXX.pdf</text><text x="12" y="54" class="tag t2">Submit packet · update timeline</text><text x="12" y="68" class="tag t2">Outcome logged for training</text><text x="12" y="82" class="tag t2">45 sec end-to-end target</text></g>
  </g>

  <path class="lineA dash" d="M126,1632 V1586" marker-end="url(#arr)"/>
  <text x="135" y="1614" class="tag t2">query arrives ← status webhook</text>
  <path class="lineA dash" d="M1080,1762 V1790 H660 V1586" marker-end="url(#arr)"/>
  <text x="900" y="1786" class="tag t2">resubmit → status tracker</text>

  <text x="40" y="1830" class="section t2">9 · Pulse role surfaces — one folder, six lenses</text>
  <g transform="translate(40,1842)">
    <rect class="soft" width="1240" height="220" rx="10"/>
    <g transform="translate(14,14)"><rect class="card" width="194" height="194" rx="6"/><text x="10" y="22" class="h t">Nurse</text><text x="10" y="40" class="tag t2">MedLynq Go capture + attach</text><text x="10" y="54" class="tag t2">QR-scan patient session</text><text x="10" y="68" class="tag t2">Session inbox · retry</text><text x="10" y="82" class="tag t2">Flag missing items</text><text x="10" y="96" class="tag t2">Voice memo support ✦A</text><text x="10" y="110" class="tag t2">Same UI, role-limited buttons</text><text x="10" y="124" class="tag t2">Ward-side workflow</text><text x="10" y="138" class="tag t2">Co-pilot nudges ✦C</text><text x="10" y="160" class="tag t2 t">Sees: own captures, missing items</text></g>
    <g transform="translate(216,14)"><rect class="card" width="194" height="194" rx="6"/><text x="10" y="22" class="h t">Doctor</text><text x="10" y="40" class="tag t2">Review Lynq case sheet</text><text x="10" y="54" class="tag t2">Sign drafted clinical-elab replies</text><text x="10" y="68" class="tag t2">Confirm or edit codes</text><text x="10" y="82" class="tag t2">Co-pilot during OPD ✦C</text><text x="10" y="96" class="tag t2">Personal benchmark vs peers</text><text x="10" y="110" class="tag t2">Voice-note Rx</text><text x="10" y="124" class="tag t2">Audit of own cases</text><text x="10" y="138" class="tag t2">Pre-auth approval requests</text><text x="10" y="160" class="tag t2 t">Sees: cases, Rx, treatment notes</text></g>
    <g transform="translate(418,14)"><rect class="card" width="194" height="194" rx="6"/><text x="10" y="22" class="h t">TPA Clerk</text><text x="10" y="40" class="tag t2">Smart workbench (all schemes)</text><text x="10" y="54" class="tag t2">Aging buckets (red &gt;15d)</text><text x="10" y="68" class="tag t2">1-click query reply</text><text x="10" y="82" class="tag t2">Packet Builder one-click</text><text x="10" y="96" class="tag t2">Ask Lynq NL search ✦I</text><text x="10" y="110" class="tag t2">Bulk download / zip</text><text x="10" y="124" class="tag t2">Manual escalation + notes</text><text x="10" y="138" class="tag t2">Settlement tracker</text><text x="10" y="160" class="tag h green">2 hrs/day given back</text></g>
    <g transform="translate(620,14)"><rect class="accentFill" width="194" height="194" rx="6"/><text x="10" y="22" class="h t">CFO (Pulse)</text><text x="10" y="40" class="tag t2">Revenue at risk · ₹ locked</text><text x="10" y="54" class="tag t2">Approval gap analysis</text><text x="10" y="68" class="tag t2">Underpayment alerts</text><text x="10" y="82" class="tag t2">Settlement projections</text><text x="10" y="96" class="tag t2">TDS · UTR reconciliation</text><text x="10" y="110" class="tag t2">Query-rate trend · ₹ saved YTD</text><text x="10" y="124" class="tag t2">TAT delta vs peers</text><text x="10" y="138" class="tag t2">Daily mobile digest ✦L</text><text x="10" y="160" class="tag h accent">CFO mobile push 7am</text></g>
    <g transform="translate(822,14)"><rect class="newFill" width="194" height="194" rx="6"/><text x="10" y="22" class="h t">Insurer-side mirror ✦G</text><text x="10" y="40" class="tag t2">Read-only TPA / payer view</text><text x="10" y="54" class="tag t2">Same case · same evidence</text><text x="10" y="68" class="tag t2">Faster query resolution</text><text x="10" y="82" class="tag t2">Two-sided network play</text><text x="10" y="96" class="tag t2">Sold as SaaS to insurer</text><text x="10" y="110" class="tag t2">Builds trust + adoption</text><text x="10" y="124" class="tag t2">Auditor link ✦K reuse</text><text x="10" y="138" class="tag t2">Foundation for moat</text><text x="10" y="160" class="tag h accent">Biggest moat upgrade</text></g>
    <g transform="translate(1024,14)"><rect class="newFill" width="202" height="194" rx="6"/><text x="10" y="22" class="h t">Patient (mini-portal) ✦H</text><text x="10" y="40" class="tag t2">Cashless approval status</text><text x="10" y="54" class="tag t2">Pre-auth tracker</text><text x="10" y="68" class="tag t2">Bill estimate visibility</text><text x="10" y="82" class="tag t2">Consent management ✦D</text><text x="10" y="96" class="tag t2">Discharge readiness flag</text><text x="10" y="110" class="tag t2">Reduces front-desk queries</text><text x="10" y="124" class="tag t2">Raises hospital NPS</text><text x="10" y="138" class="tag t2">Light-touch · WhatsApp/SMS</text><text x="10" y="160" class="tag t2 t">Sees: own case status only</text></g>
  </g>

  <text x="40" y="2080" class="tag t2">+ Admin role: HIS / NHCX / pharmacy / ERP integrations · scheme mapping · DPDP audit · role &amp; permission management · data-sharing agreement registry</text>

  <text x="40" y="2110" class="section t2">10 · Before → After</text>
  <g transform="translate(40,2122)">
    <rect class="redSoft" width="610" height="170" rx="10"/>
    <text x="14" y="24" class="h t">Today (without MedLynq)</text>
    <text x="14" y="46" class="sub t2">Handwritten note → clerk re-types into 6 different portal UIs</text>
    <text x="14" y="62" class="sub t2">"PROVIDE POST OP HPE REPORT" → 25–40 min hunting · 23 days lost · 3–8 rounds</text>
    <text x="14" y="78" class="sub t2">CFO blind to ₹ locked · aging · underpayments · TAT vs peers</text>
    <text x="14" y="94" class="sub t2">6 portals · zero APIs · every scheme has its own quirks</text>
    <text x="14" y="110" class="sub t2">15–40% of hospital revenue locked at any moment</text>
    <text x="14" y="126" class="sub t2">Pre-auth done manually on portal · patient waits · cashless surprises</text>
    <text x="14" y="142" class="sub t2">Insurer re-asks docs already on file (no one can find them)</text>
    <text x="14" y="158" class="sub t2">Empanelment lapses silently · claims rejected without warning</text>
  </g>
  <path class="lineA" d="M650,2207 H700" marker-end="url(#arr)"/>
  <g transform="translate(700,2122)">
    <rect class="greenSoft" width="580" height="170" rx="10"/>
    <text x="14" y="24" class="h t">With MedLynq</text>
    <text x="14" y="46" class="sub t2">One folder · captured via Go (photo · handwriting · voice)</text>
    <text x="14" y="62" class="sub t2">Risk scorer + missing-doc detection block queries before submit</text>
    <text x="14" y="78" class="sub t2">When queries arrive: classify → locate evidence → draft → packet · 45 sec</text>
    <text x="14" y="94" class="sub t2">NHCX FHIR submission · UTR auto-posted to Tally · full AuditEvent trail</text>
    <text x="14" y="110" class="sub t2">CFO Pulse + daily mobile digest at 7am — ₹ unlocked, query trend, TAT</text>
    <text x="14" y="126" class="sub t2">Insurer-side mirror = neutral middleware (two-sided network)</text>
    <text x="14" y="142" class="sub t2">Lynq co-pilot prevents missing docs at the OPD/IPD bedside</text>
    <text x="14" y="158" class="sub t2">Empanelment intel · auditor share · patient portal · ERP-synced</text>
  </g>

  <text x="40" y="2320" class="section t2">11 · Mindmap — one platform, seven branches</text>
  <g transform="translate(580,2410)">
    <rect class="accent" width="180" height="64" rx="32"/>
    <text x="90" y="32" class="h inv" text-anchor="middle">MedLynq</text>
    <text x="90" y="50" class="sub inv" text-anchor="middle">Technologies</text>
  </g>
  <path class="line" d="M580,2442 C470,2442 430,2350 320,2350"/>
  <path class="line" d="M580,2442 C470,2442 430,2440 320,2440"/>
  <path class="line" d="M580,2442 C470,2442 430,2530 320,2530"/>
  <path class="line" d="M760,2442 C870,2442 910,2330 1000,2330"/>
  <path class="line" d="M760,2442 C870,2442 910,2400 1000,2400"/>
  <path class="line" d="M760,2442 C870,2442 910,2470 1000,2470"/>
  <path class="line" d="M760,2442 C870,2442 910,2540 1000,2540"/>
  <g transform="translate(40,2320)"><rect class="card" width="280" height="60" rx="6"/><text x="14" y="22" class="h t">Capture lanes</text><text x="14" y="40" class="sub t2">Go (camera · handwriting · voice)</text><text x="14" y="54" class="sub t2">HIS · pharmacy · PACS · consent</text></g>
  <g transform="translate(40,2410)"><rect class="card" width="280" height="60" rx="6"/><text x="14" y="22" class="h t">Lynq AI brain</text><text x="14" y="40" class="sub t2">Extract · risk · classify · locate</text><text x="14" y="54" class="sub t2">Packet · NL search · co-pilot</text></g>
  <g transform="translate(40,2500)"><rect class="card" width="280" height="60" rx="6"/><text x="14" y="22" class="h t">Bridges</text><text x="14" y="40" class="sub t2">HIS · NHCX FHIR · ERP/Tally</text><text x="14" y="54" class="sub t2">Pharmacy · PACS · 6 schemes</text></g>
  <g transform="translate(1000,2300)"><rect class="card" width="280" height="60" rx="6"/><text x="14" y="22" class="h t">Role surfaces (Pulse)</text><text x="14" y="40" class="sub t2">Nurse · Doctor · TPA · CFO</text><text x="14" y="54" class="sub t2">Insurer mirror · Patient · Admin</text></g>
  <g transform="translate(1000,2370)"><rect class="card" width="280" height="60" rx="6"/><text x="14" y="22" class="h t">Workflows</text><text x="14" y="40" class="sub t2">Pre-auth (cashless)</text><text x="14" y="54" class="sub t2">Post-claim · query loop</text></g>
  <g transform="translate(1000,2440)"><rect class="card" width="280" height="60" rx="6"/><text x="14" y="22" class="h t">Outcomes</text><text x="14" y="40" class="sub t2">Queries ↓ · TAT ↓ · ₹ unlocked</text><text x="14" y="54" class="sub t2">CFO clarity · clerk relief</text></g>
  <g transform="translate(1000,2510)"><rect class="card" width="280" height="60" rx="6"/><text x="14" y="22" class="h t">Data flywheel (moat)</text><text x="14" y="40" class="sub t2">61 fields/case · synthetic + real</text><text x="14" y="54" class="sub t2">India's only claims AI corpus</text></g>

  <text x="40" y="2620" class="section t2">12 · Data flywheel — every query becomes training data</text>
  <g transform="translate(40,2636)">
    <rect class="soft" width="1240" height="100" rx="10"/>
    <g class="t">
      <g transform="translate(20,40)"><circle r="22" class="accent"/><text y="5" class="inv h" text-anchor="middle">1</text><text x="34" y="-4" class="h t">Usage</text><text x="34" y="12" class="tag t2">Clerks resolve queries in Pulse</text></g>
      <path class="lineA" d="M210,40 H290" marker-end="url(#arr)"/>
      <g transform="translate(310,40)"><circle r="22" class="accent"/><text y="5" class="inv h" text-anchor="middle">2</text><text x="34" y="-4" class="h t">Capture</text><text x="34" y="12" class="tag t2">Query · response · outcome logged</text></g>
      <path class="lineA" d="M520,40 H600" marker-end="url(#arr)"/>
      <g transform="translate(620,40)"><circle r="22" class="accent"/><text y="5" class="inv h" text-anchor="middle">3</text><text x="34" y="-4" class="h t">Augment</text><text x="34" y="12" class="tag t2">14k synthetic variants generated</text></g>
      <path class="lineA" d="M840,40 H920" marker-end="url(#arr)"/>
      <g transform="translate(940,40)"><circle r="22" class="accent"/><text y="5" class="inv h" text-anchor="middle">4</text><text x="34" y="-4" class="h t">Retrain</text><text x="34" y="12" class="tag t2">Lynq accuracy 75% → 92% → 96%</text></g>
    </g>
    <path class="lineA dash" d="M1180,40 C1240,40 1240,80 1180,80 H80 C20,80 20,40 80,40" marker-end="url(#arr)"/>
    <text x="630" y="92" class="tag t2" text-anchor="middle">Better predictions feed back into Usage → moat compounds with every claim</text>
  </g>

  <text x="40" y="2770" class="section t2">13 · The numbers the CFO sees first</text>
  <g transform="translate(40,2786)"><rect class="greenSoft" width="240" height="110" rx="10"/><text x="16" y="32" class="big green">−68%</text><text x="16" y="56" class="h t">Queries raised</text><text x="16" y="74" class="tag t2">Risk scorer + missing-doc + co-pilot</text><text x="16" y="92" class="tag t2">Compounded by network alerts</text></g>
  <g transform="translate(296,2786)"><rect class="greenSoft" width="240" height="110" rx="10"/><text x="16" y="32" class="big green">25min → 45s</text><text x="16" y="56" class="h t">Per-query handling</text><text x="16" y="74" class="tag t2">Locator · Drafter · Packet Builder</text><text x="16" y="92" class="tag t2">2 hrs/day back to the clerk</text></g>
  <g transform="translate(552,2786)"><rect class="greenSoft" width="240" height="110" rx="10"/><text x="16" y="32" class="big green">23d → 14d</text><text x="16" y="56" class="h t">Settlement TAT</text><text x="16" y="74" class="tag t2">Clean first submission</text><text x="16" y="92" class="tag t2">Cash-flow forecast tightens</text></g>
  <g transform="translate(808,2786)"><rect class="greenSoft" width="240" height="110" rx="10"/><text x="16" y="32" class="big green">₹ X cr</text><text x="16" y="56" class="h t">Revenue unlocked</text><text x="16" y="74" class="tag t2">From the 15–40% locked pool</text><text x="16" y="92" class="tag t2">Underpayment disputes won</text></g>
  <g transform="translate(1064,2786)"><rect class="greenSoft" width="216" height="110" rx="10"/><text x="16" y="32" class="big green">100k+</text><text x="16" y="56" class="h t">Labelled cases (24m)</text><text x="16" y="74" class="tag t2">India's only claims AI corpus</text><text x="16" y="92" class="tag t2">Moat compounds every claim</text></g>

  <g transform="translate(40,2930)">
    <rect class="card" width="1240" height="110" rx="8"/>
    <text x="16" y="24" class="h t">Symbol legend</text>
    <rect class="newFill" x="14" y="36" width="14" height="14"/><text x="34" y="48" class="tag t2">New from Blueprint v2 (Evidence Index · Locator · Packet Builder · Missing-doc detection · UTR · AuditEvent)</text>
    <text x="14" y="68" class="tag t"><tspan class="badge">✦A–L</tspan> <tspan class="t2">= twelve new concepts: A Voice notes · B Pre-auth · C Doctor co-pilot · D Consent ledger · E Empanelment intel · F Pharmacy/barcode ·</tspan></text>
    <text x="14" y="84" class="tag t2">G Insurer-side mirror · H Patient portal · I Ask Lynq NL search · J ERP/Tally sync · K Auditor share link · L CFO mobile push</text>
    <text x="14" y="102" class="tag t2">Bold-outlined boxes = new modules. Lynq orange = AI surfaces. Green = outcomes. Read top to bottom.</text>
  </g>
</svg>
